%TF.GenerationSoftware,KiCad,Pcbnew,9.0.7*%
%TF.CreationDate,2026-03-09T17:15:01-03:00*%
%TF.ProjectId,3DriversA4988,33447269-7665-4727-9341-343938382e6b,rev?*%
%TF.SameCoordinates,Original*%
%TF.FileFunction,Legend,Top*%
%TF.FilePolarity,Positive*%
%FSLAX46Y46*%
G04 Gerber Fmt 4.6, Leading zero omitted, Abs format (unit mm)*
G04 Created by KiCad (PCBNEW 9.0.7) date 2026-03-09 17:15:01*
%MOMM*%
%LPD*%
G01*
G04 APERTURE LIST*
%ADD10C,0.100000*%
%ADD11C,0.200000*%
%ADD12C,0.150000*%
%ADD13C,0.120000*%
G04 APERTURE END LIST*
D10*
X120303884Y-93491466D02*
X121065789Y-93491466D01*
X120684836Y-93872419D02*
X120684836Y-93110514D01*
X122018169Y-92872419D02*
X121541979Y-92872419D01*
X121541979Y-92872419D02*
X121494360Y-93348609D01*
X121494360Y-93348609D02*
X121541979Y-93300990D01*
X121541979Y-93300990D02*
X121637217Y-93253371D01*
X121637217Y-93253371D02*
X121875312Y-93253371D01*
X121875312Y-93253371D02*
X121970550Y-93300990D01*
X121970550Y-93300990D02*
X122018169Y-93348609D01*
X122018169Y-93348609D02*
X122065788Y-93443847D01*
X122065788Y-93443847D02*
X122065788Y-93681942D01*
X122065788Y-93681942D02*
X122018169Y-93777180D01*
X122018169Y-93777180D02*
X121970550Y-93824800D01*
X121970550Y-93824800D02*
X121875312Y-93872419D01*
X121875312Y-93872419D02*
X121637217Y-93872419D01*
X121637217Y-93872419D02*
X121541979Y-93824800D01*
X121541979Y-93824800D02*
X121494360Y-93777180D01*
X122351503Y-92872419D02*
X122684836Y-93872419D01*
X122684836Y-93872419D02*
X123018169Y-92872419D01*
X122303884Y-111872419D02*
X122303884Y-110872419D01*
X122303884Y-110872419D02*
X122684836Y-110872419D01*
X122684836Y-110872419D02*
X122780074Y-110920038D01*
X122780074Y-110920038D02*
X122827693Y-110967657D01*
X122827693Y-110967657D02*
X122875312Y-111062895D01*
X122875312Y-111062895D02*
X122875312Y-111205752D01*
X122875312Y-111205752D02*
X122827693Y-111300990D01*
X122827693Y-111300990D02*
X122780074Y-111348609D01*
X122780074Y-111348609D02*
X122684836Y-111396228D01*
X122684836Y-111396228D02*
X122303884Y-111396228D01*
X123494360Y-110872419D02*
X123684836Y-110872419D01*
X123684836Y-110872419D02*
X123780074Y-110920038D01*
X123780074Y-110920038D02*
X123875312Y-111015276D01*
X123875312Y-111015276D02*
X123922931Y-111205752D01*
X123922931Y-111205752D02*
X123922931Y-111539085D01*
X123922931Y-111539085D02*
X123875312Y-111729561D01*
X123875312Y-111729561D02*
X123780074Y-111824800D01*
X123780074Y-111824800D02*
X123684836Y-111872419D01*
X123684836Y-111872419D02*
X123494360Y-111872419D01*
X123494360Y-111872419D02*
X123399122Y-111824800D01*
X123399122Y-111824800D02*
X123303884Y-111729561D01*
X123303884Y-111729561D02*
X123256265Y-111539085D01*
X123256265Y-111539085D02*
X123256265Y-111205752D01*
X123256265Y-111205752D02*
X123303884Y-111015276D01*
X123303884Y-111015276D02*
X123399122Y-110920038D01*
X123399122Y-110920038D02*
X123494360Y-110872419D01*
X124208646Y-110872419D02*
X124780074Y-110872419D01*
X124494360Y-111872419D02*
X124494360Y-110872419D01*
X108077693Y-129872419D02*
X107506265Y-129872419D01*
X107791979Y-129872419D02*
X107791979Y-128872419D01*
X107791979Y-128872419D02*
X107696741Y-129015276D01*
X107696741Y-129015276D02*
X107601503Y-129110514D01*
X107601503Y-129110514D02*
X107506265Y-129158133D01*
X108696741Y-128872419D02*
X108791979Y-128872419D01*
X108791979Y-128872419D02*
X108887217Y-128920038D01*
X108887217Y-128920038D02*
X108934836Y-128967657D01*
X108934836Y-128967657D02*
X108982455Y-129062895D01*
X108982455Y-129062895D02*
X109030074Y-129253371D01*
X109030074Y-129253371D02*
X109030074Y-129491466D01*
X109030074Y-129491466D02*
X108982455Y-129681942D01*
X108982455Y-129681942D02*
X108934836Y-129777180D01*
X108934836Y-129777180D02*
X108887217Y-129824800D01*
X108887217Y-129824800D02*
X108791979Y-129872419D01*
X108791979Y-129872419D02*
X108696741Y-129872419D01*
X108696741Y-129872419D02*
X108601503Y-129824800D01*
X108601503Y-129824800D02*
X108553884Y-129777180D01*
X108553884Y-129777180D02*
X108506265Y-129681942D01*
X108506265Y-129681942D02*
X108458646Y-129491466D01*
X108458646Y-129491466D02*
X108458646Y-129253371D01*
X108458646Y-129253371D02*
X108506265Y-129062895D01*
X108506265Y-129062895D02*
X108553884Y-128967657D01*
X108553884Y-128967657D02*
X108601503Y-128920038D01*
X108601503Y-128920038D02*
X108696741Y-128872419D01*
X109649122Y-128872419D02*
X109744360Y-128872419D01*
X109744360Y-128872419D02*
X109839598Y-128920038D01*
X109839598Y-128920038D02*
X109887217Y-128967657D01*
X109887217Y-128967657D02*
X109934836Y-129062895D01*
X109934836Y-129062895D02*
X109982455Y-129253371D01*
X109982455Y-129253371D02*
X109982455Y-129491466D01*
X109982455Y-129491466D02*
X109934836Y-129681942D01*
X109934836Y-129681942D02*
X109887217Y-129777180D01*
X109887217Y-129777180D02*
X109839598Y-129824800D01*
X109839598Y-129824800D02*
X109744360Y-129872419D01*
X109744360Y-129872419D02*
X109649122Y-129872419D01*
X109649122Y-129872419D02*
X109553884Y-129824800D01*
X109553884Y-129824800D02*
X109506265Y-129777180D01*
X109506265Y-129777180D02*
X109458646Y-129681942D01*
X109458646Y-129681942D02*
X109411027Y-129491466D01*
X109411027Y-129491466D02*
X109411027Y-129253371D01*
X109411027Y-129253371D02*
X109458646Y-129062895D01*
X109458646Y-129062895D02*
X109506265Y-128967657D01*
X109506265Y-128967657D02*
X109553884Y-128920038D01*
X109553884Y-128920038D02*
X109649122Y-128872419D01*
X110839598Y-129205752D02*
X110839598Y-129872419D01*
X110411027Y-129205752D02*
X110411027Y-129729561D01*
X110411027Y-129729561D02*
X110458646Y-129824800D01*
X110458646Y-129824800D02*
X110553884Y-129872419D01*
X110553884Y-129872419D02*
X110696741Y-129872419D01*
X110696741Y-129872419D02*
X110791979Y-129824800D01*
X110791979Y-129824800D02*
X110839598Y-129777180D01*
X111649122Y-129348609D02*
X111315789Y-129348609D01*
X111315789Y-129872419D02*
X111315789Y-128872419D01*
X111315789Y-128872419D02*
X111791979Y-128872419D01*
D11*
X141558898Y-114952219D02*
X141558898Y-113952219D01*
X141558898Y-113952219D02*
X141892231Y-114666504D01*
X141892231Y-114666504D02*
X142225564Y-113952219D01*
X142225564Y-113952219D02*
X142225564Y-114952219D01*
X142654136Y-114904600D02*
X142796993Y-114952219D01*
X142796993Y-114952219D02*
X143035088Y-114952219D01*
X143035088Y-114952219D02*
X143130326Y-114904600D01*
X143130326Y-114904600D02*
X143177945Y-114856980D01*
X143177945Y-114856980D02*
X143225564Y-114761742D01*
X143225564Y-114761742D02*
X143225564Y-114666504D01*
X143225564Y-114666504D02*
X143177945Y-114571266D01*
X143177945Y-114571266D02*
X143130326Y-114523647D01*
X143130326Y-114523647D02*
X143035088Y-114476028D01*
X143035088Y-114476028D02*
X142844612Y-114428409D01*
X142844612Y-114428409D02*
X142749374Y-114380790D01*
X142749374Y-114380790D02*
X142701755Y-114333171D01*
X142701755Y-114333171D02*
X142654136Y-114237933D01*
X142654136Y-114237933D02*
X142654136Y-114142695D01*
X142654136Y-114142695D02*
X142701755Y-114047457D01*
X142701755Y-114047457D02*
X142749374Y-113999838D01*
X142749374Y-113999838D02*
X142844612Y-113952219D01*
X142844612Y-113952219D02*
X143082707Y-113952219D01*
X143082707Y-113952219D02*
X143225564Y-113999838D01*
X144177945Y-114952219D02*
X143606517Y-114952219D01*
X143892231Y-114952219D02*
X143892231Y-113952219D01*
X143892231Y-113952219D02*
X143796993Y-114095076D01*
X143796993Y-114095076D02*
X143701755Y-114190314D01*
X143701755Y-114190314D02*
X143606517Y-114237933D01*
X141476190Y-116928409D02*
X141809523Y-116928409D01*
X141952380Y-117452219D02*
X141476190Y-117452219D01*
X141476190Y-117452219D02*
X141476190Y-116452219D01*
X141476190Y-116452219D02*
X141952380Y-116452219D01*
X142380952Y-117452219D02*
X142380952Y-116452219D01*
X142380952Y-116452219D02*
X142952380Y-117452219D01*
X142952380Y-117452219D02*
X142952380Y-116452219D01*
X143380952Y-117166504D02*
X143857142Y-117166504D01*
X143285714Y-117452219D02*
X143619047Y-116452219D01*
X143619047Y-116452219D02*
X143952380Y-117452219D01*
X144619047Y-116928409D02*
X144761904Y-116976028D01*
X144761904Y-116976028D02*
X144809523Y-117023647D01*
X144809523Y-117023647D02*
X144857142Y-117118885D01*
X144857142Y-117118885D02*
X144857142Y-117261742D01*
X144857142Y-117261742D02*
X144809523Y-117356980D01*
X144809523Y-117356980D02*
X144761904Y-117404600D01*
X144761904Y-117404600D02*
X144666666Y-117452219D01*
X144666666Y-117452219D02*
X144285714Y-117452219D01*
X144285714Y-117452219D02*
X144285714Y-116452219D01*
X144285714Y-116452219D02*
X144619047Y-116452219D01*
X144619047Y-116452219D02*
X144714285Y-116499838D01*
X144714285Y-116499838D02*
X144761904Y-116547457D01*
X144761904Y-116547457D02*
X144809523Y-116642695D01*
X144809523Y-116642695D02*
X144809523Y-116737933D01*
X144809523Y-116737933D02*
X144761904Y-116833171D01*
X144761904Y-116833171D02*
X144714285Y-116880790D01*
X144714285Y-116880790D02*
X144619047Y-116928409D01*
X144619047Y-116928409D02*
X144285714Y-116928409D01*
X145761904Y-117452219D02*
X145285714Y-117452219D01*
X145285714Y-117452219D02*
X145285714Y-116452219D01*
X146095238Y-116928409D02*
X146428571Y-116928409D01*
X146571428Y-117452219D02*
X146095238Y-117452219D01*
X146095238Y-117452219D02*
X146095238Y-116452219D01*
X146095238Y-116452219D02*
X146571428Y-116452219D01*
X141338095Y-116174600D02*
X146661905Y-116174600D01*
D10*
X160827693Y-92920038D02*
X160732455Y-92872419D01*
X160732455Y-92872419D02*
X160589598Y-92872419D01*
X160589598Y-92872419D02*
X160446741Y-92920038D01*
X160446741Y-92920038D02*
X160351503Y-93015276D01*
X160351503Y-93015276D02*
X160303884Y-93110514D01*
X160303884Y-93110514D02*
X160256265Y-93300990D01*
X160256265Y-93300990D02*
X160256265Y-93443847D01*
X160256265Y-93443847D02*
X160303884Y-93634323D01*
X160303884Y-93634323D02*
X160351503Y-93729561D01*
X160351503Y-93729561D02*
X160446741Y-93824800D01*
X160446741Y-93824800D02*
X160589598Y-93872419D01*
X160589598Y-93872419D02*
X160684836Y-93872419D01*
X160684836Y-93872419D02*
X160827693Y-93824800D01*
X160827693Y-93824800D02*
X160875312Y-93777180D01*
X160875312Y-93777180D02*
X160875312Y-93443847D01*
X160875312Y-93443847D02*
X160684836Y-93443847D01*
X161303884Y-93872419D02*
X161303884Y-92872419D01*
X161303884Y-92872419D02*
X161875312Y-93872419D01*
X161875312Y-93872419D02*
X161875312Y-92872419D01*
X162351503Y-93872419D02*
X162351503Y-92872419D01*
X162351503Y-92872419D02*
X162589598Y-92872419D01*
X162589598Y-92872419D02*
X162732455Y-92920038D01*
X162732455Y-92920038D02*
X162827693Y-93015276D01*
X162827693Y-93015276D02*
X162875312Y-93110514D01*
X162875312Y-93110514D02*
X162922931Y-93300990D01*
X162922931Y-93300990D02*
X162922931Y-93443847D01*
X162922931Y-93443847D02*
X162875312Y-93634323D01*
X162875312Y-93634323D02*
X162827693Y-93729561D01*
X162827693Y-93729561D02*
X162732455Y-93824800D01*
X162732455Y-93824800D02*
X162589598Y-93872419D01*
X162589598Y-93872419D02*
X162351503Y-93872419D01*
X121256265Y-133967657D02*
X121303884Y-133920038D01*
X121303884Y-133920038D02*
X121399122Y-133872419D01*
X121399122Y-133872419D02*
X121637217Y-133872419D01*
X121637217Y-133872419D02*
X121732455Y-133920038D01*
X121732455Y-133920038D02*
X121780074Y-133967657D01*
X121780074Y-133967657D02*
X121827693Y-134062895D01*
X121827693Y-134062895D02*
X121827693Y-134158133D01*
X121827693Y-134158133D02*
X121780074Y-134300990D01*
X121780074Y-134300990D02*
X121208646Y-134872419D01*
X121208646Y-134872419D02*
X121827693Y-134872419D01*
X122208646Y-134586704D02*
X122684836Y-134586704D01*
X122113408Y-134872419D02*
X122446741Y-133872419D01*
X122446741Y-133872419D02*
X122780074Y-134872419D01*
D11*
X141558898Y-109952219D02*
X141558898Y-108952219D01*
X141558898Y-108952219D02*
X141892231Y-109666504D01*
X141892231Y-109666504D02*
X142225564Y-108952219D01*
X142225564Y-108952219D02*
X142225564Y-109952219D01*
X142654136Y-109904600D02*
X142796993Y-109952219D01*
X142796993Y-109952219D02*
X143035088Y-109952219D01*
X143035088Y-109952219D02*
X143130326Y-109904600D01*
X143130326Y-109904600D02*
X143177945Y-109856980D01*
X143177945Y-109856980D02*
X143225564Y-109761742D01*
X143225564Y-109761742D02*
X143225564Y-109666504D01*
X143225564Y-109666504D02*
X143177945Y-109571266D01*
X143177945Y-109571266D02*
X143130326Y-109523647D01*
X143130326Y-109523647D02*
X143035088Y-109476028D01*
X143035088Y-109476028D02*
X142844612Y-109428409D01*
X142844612Y-109428409D02*
X142749374Y-109380790D01*
X142749374Y-109380790D02*
X142701755Y-109333171D01*
X142701755Y-109333171D02*
X142654136Y-109237933D01*
X142654136Y-109237933D02*
X142654136Y-109142695D01*
X142654136Y-109142695D02*
X142701755Y-109047457D01*
X142701755Y-109047457D02*
X142749374Y-108999838D01*
X142749374Y-108999838D02*
X142844612Y-108952219D01*
X142844612Y-108952219D02*
X143082707Y-108952219D01*
X143082707Y-108952219D02*
X143225564Y-108999838D01*
X143558898Y-108952219D02*
X144177945Y-108952219D01*
X144177945Y-108952219D02*
X143844612Y-109333171D01*
X143844612Y-109333171D02*
X143987469Y-109333171D01*
X143987469Y-109333171D02*
X144082707Y-109380790D01*
X144082707Y-109380790D02*
X144130326Y-109428409D01*
X144130326Y-109428409D02*
X144177945Y-109523647D01*
X144177945Y-109523647D02*
X144177945Y-109761742D01*
X144177945Y-109761742D02*
X144130326Y-109856980D01*
X144130326Y-109856980D02*
X144082707Y-109904600D01*
X144082707Y-109904600D02*
X143987469Y-109952219D01*
X143987469Y-109952219D02*
X143701755Y-109952219D01*
X143701755Y-109952219D02*
X143606517Y-109904600D01*
X143606517Y-109904600D02*
X143558898Y-109856980D01*
D10*
X127327693Y-134872419D02*
X126756265Y-134872419D01*
X127041979Y-134872419D02*
X127041979Y-133872419D01*
X127041979Y-133872419D02*
X126946741Y-134015276D01*
X126946741Y-134015276D02*
X126851503Y-134110514D01*
X126851503Y-134110514D02*
X126756265Y-134158133D01*
X128089598Y-134348609D02*
X128232455Y-134396228D01*
X128232455Y-134396228D02*
X128280074Y-134443847D01*
X128280074Y-134443847D02*
X128327693Y-134539085D01*
X128327693Y-134539085D02*
X128327693Y-134681942D01*
X128327693Y-134681942D02*
X128280074Y-134777180D01*
X128280074Y-134777180D02*
X128232455Y-134824800D01*
X128232455Y-134824800D02*
X128137217Y-134872419D01*
X128137217Y-134872419D02*
X127756265Y-134872419D01*
X127756265Y-134872419D02*
X127756265Y-133872419D01*
X127756265Y-133872419D02*
X128089598Y-133872419D01*
X128089598Y-133872419D02*
X128184836Y-133920038D01*
X128184836Y-133920038D02*
X128232455Y-133967657D01*
X128232455Y-133967657D02*
X128280074Y-134062895D01*
X128280074Y-134062895D02*
X128280074Y-134158133D01*
X128280074Y-134158133D02*
X128232455Y-134253371D01*
X128232455Y-134253371D02*
X128184836Y-134300990D01*
X128184836Y-134300990D02*
X128089598Y-134348609D01*
X128089598Y-134348609D02*
X127756265Y-134348609D01*
X196303884Y-111872419D02*
X196303884Y-110872419D01*
X196303884Y-110872419D02*
X196684836Y-110872419D01*
X196684836Y-110872419D02*
X196780074Y-110920038D01*
X196780074Y-110920038D02*
X196827693Y-110967657D01*
X196827693Y-110967657D02*
X196875312Y-111062895D01*
X196875312Y-111062895D02*
X196875312Y-111205752D01*
X196875312Y-111205752D02*
X196827693Y-111300990D01*
X196827693Y-111300990D02*
X196780074Y-111348609D01*
X196780074Y-111348609D02*
X196684836Y-111396228D01*
X196684836Y-111396228D02*
X196303884Y-111396228D01*
X197494360Y-110872419D02*
X197684836Y-110872419D01*
X197684836Y-110872419D02*
X197780074Y-110920038D01*
X197780074Y-110920038D02*
X197875312Y-111015276D01*
X197875312Y-111015276D02*
X197922931Y-111205752D01*
X197922931Y-111205752D02*
X197922931Y-111539085D01*
X197922931Y-111539085D02*
X197875312Y-111729561D01*
X197875312Y-111729561D02*
X197780074Y-111824800D01*
X197780074Y-111824800D02*
X197684836Y-111872419D01*
X197684836Y-111872419D02*
X197494360Y-111872419D01*
X197494360Y-111872419D02*
X197399122Y-111824800D01*
X197399122Y-111824800D02*
X197303884Y-111729561D01*
X197303884Y-111729561D02*
X197256265Y-111539085D01*
X197256265Y-111539085D02*
X197256265Y-111205752D01*
X197256265Y-111205752D02*
X197303884Y-111015276D01*
X197303884Y-111015276D02*
X197399122Y-110920038D01*
X197399122Y-110920038D02*
X197494360Y-110872419D01*
X198208646Y-110872419D02*
X198780074Y-110872419D01*
X198494360Y-111872419D02*
X198494360Y-110872419D01*
X156803884Y-93491466D02*
X157565789Y-93491466D01*
X157184836Y-93872419D02*
X157184836Y-93110514D01*
X158518169Y-92872419D02*
X158041979Y-92872419D01*
X158041979Y-92872419D02*
X157994360Y-93348609D01*
X157994360Y-93348609D02*
X158041979Y-93300990D01*
X158041979Y-93300990D02*
X158137217Y-93253371D01*
X158137217Y-93253371D02*
X158375312Y-93253371D01*
X158375312Y-93253371D02*
X158470550Y-93300990D01*
X158470550Y-93300990D02*
X158518169Y-93348609D01*
X158518169Y-93348609D02*
X158565788Y-93443847D01*
X158565788Y-93443847D02*
X158565788Y-93681942D01*
X158565788Y-93681942D02*
X158518169Y-93777180D01*
X158518169Y-93777180D02*
X158470550Y-93824800D01*
X158470550Y-93824800D02*
X158375312Y-93872419D01*
X158375312Y-93872419D02*
X158137217Y-93872419D01*
X158137217Y-93872419D02*
X158041979Y-93824800D01*
X158041979Y-93824800D02*
X157994360Y-93777180D01*
X158851503Y-92872419D02*
X159184836Y-93872419D01*
X159184836Y-93872419D02*
X159518169Y-92872419D01*
X194303884Y-93491466D02*
X195065789Y-93491466D01*
X194684836Y-93872419D02*
X194684836Y-93110514D01*
X196018169Y-92872419D02*
X195541979Y-92872419D01*
X195541979Y-92872419D02*
X195494360Y-93348609D01*
X195494360Y-93348609D02*
X195541979Y-93300990D01*
X195541979Y-93300990D02*
X195637217Y-93253371D01*
X195637217Y-93253371D02*
X195875312Y-93253371D01*
X195875312Y-93253371D02*
X195970550Y-93300990D01*
X195970550Y-93300990D02*
X196018169Y-93348609D01*
X196018169Y-93348609D02*
X196065788Y-93443847D01*
X196065788Y-93443847D02*
X196065788Y-93681942D01*
X196065788Y-93681942D02*
X196018169Y-93777180D01*
X196018169Y-93777180D02*
X195970550Y-93824800D01*
X195970550Y-93824800D02*
X195875312Y-93872419D01*
X195875312Y-93872419D02*
X195637217Y-93872419D01*
X195637217Y-93872419D02*
X195541979Y-93824800D01*
X195541979Y-93824800D02*
X195494360Y-93777180D01*
X196351503Y-92872419D02*
X196684836Y-93872419D01*
X196684836Y-93872419D02*
X197018169Y-92872419D01*
D11*
X141558898Y-112452219D02*
X141558898Y-111452219D01*
X141558898Y-111452219D02*
X141892231Y-112166504D01*
X141892231Y-112166504D02*
X142225564Y-111452219D01*
X142225564Y-111452219D02*
X142225564Y-112452219D01*
X142654136Y-112404600D02*
X142796993Y-112452219D01*
X142796993Y-112452219D02*
X143035088Y-112452219D01*
X143035088Y-112452219D02*
X143130326Y-112404600D01*
X143130326Y-112404600D02*
X143177945Y-112356980D01*
X143177945Y-112356980D02*
X143225564Y-112261742D01*
X143225564Y-112261742D02*
X143225564Y-112166504D01*
X143225564Y-112166504D02*
X143177945Y-112071266D01*
X143177945Y-112071266D02*
X143130326Y-112023647D01*
X143130326Y-112023647D02*
X143035088Y-111976028D01*
X143035088Y-111976028D02*
X142844612Y-111928409D01*
X142844612Y-111928409D02*
X142749374Y-111880790D01*
X142749374Y-111880790D02*
X142701755Y-111833171D01*
X142701755Y-111833171D02*
X142654136Y-111737933D01*
X142654136Y-111737933D02*
X142654136Y-111642695D01*
X142654136Y-111642695D02*
X142701755Y-111547457D01*
X142701755Y-111547457D02*
X142749374Y-111499838D01*
X142749374Y-111499838D02*
X142844612Y-111452219D01*
X142844612Y-111452219D02*
X143082707Y-111452219D01*
X143082707Y-111452219D02*
X143225564Y-111499838D01*
X143606517Y-111547457D02*
X143654136Y-111499838D01*
X143654136Y-111499838D02*
X143749374Y-111452219D01*
X143749374Y-111452219D02*
X143987469Y-111452219D01*
X143987469Y-111452219D02*
X144082707Y-111499838D01*
X144082707Y-111499838D02*
X144130326Y-111547457D01*
X144130326Y-111547457D02*
X144177945Y-111642695D01*
X144177945Y-111642695D02*
X144177945Y-111737933D01*
X144177945Y-111737933D02*
X144130326Y-111880790D01*
X144130326Y-111880790D02*
X143558898Y-112452219D01*
X143558898Y-112452219D02*
X144177945Y-112452219D01*
D10*
X211303884Y-135127466D02*
X212065789Y-135127466D01*
X211684836Y-135508419D02*
X211684836Y-134746514D01*
X213065788Y-135508419D02*
X212494360Y-135508419D01*
X212780074Y-135508419D02*
X212780074Y-134508419D01*
X212780074Y-134508419D02*
X212684836Y-134651276D01*
X212684836Y-134651276D02*
X212589598Y-134746514D01*
X212589598Y-134746514D02*
X212494360Y-134794133D01*
X213446741Y-134603657D02*
X213494360Y-134556038D01*
X213494360Y-134556038D02*
X213589598Y-134508419D01*
X213589598Y-134508419D02*
X213827693Y-134508419D01*
X213827693Y-134508419D02*
X213922931Y-134556038D01*
X213922931Y-134556038D02*
X213970550Y-134603657D01*
X213970550Y-134603657D02*
X214018169Y-134698895D01*
X214018169Y-134698895D02*
X214018169Y-134794133D01*
X214018169Y-134794133D02*
X213970550Y-134936990D01*
X213970550Y-134936990D02*
X213399122Y-135508419D01*
X213399122Y-135508419D02*
X214018169Y-135508419D01*
X214303884Y-134508419D02*
X214637217Y-135508419D01*
X214637217Y-135508419D02*
X214970550Y-134508419D01*
X198327693Y-92920038D02*
X198232455Y-92872419D01*
X198232455Y-92872419D02*
X198089598Y-92872419D01*
X198089598Y-92872419D02*
X197946741Y-92920038D01*
X197946741Y-92920038D02*
X197851503Y-93015276D01*
X197851503Y-93015276D02*
X197803884Y-93110514D01*
X197803884Y-93110514D02*
X197756265Y-93300990D01*
X197756265Y-93300990D02*
X197756265Y-93443847D01*
X197756265Y-93443847D02*
X197803884Y-93634323D01*
X197803884Y-93634323D02*
X197851503Y-93729561D01*
X197851503Y-93729561D02*
X197946741Y-93824800D01*
X197946741Y-93824800D02*
X198089598Y-93872419D01*
X198089598Y-93872419D02*
X198184836Y-93872419D01*
X198184836Y-93872419D02*
X198327693Y-93824800D01*
X198327693Y-93824800D02*
X198375312Y-93777180D01*
X198375312Y-93777180D02*
X198375312Y-93443847D01*
X198375312Y-93443847D02*
X198184836Y-93443847D01*
X198803884Y-93872419D02*
X198803884Y-92872419D01*
X198803884Y-92872419D02*
X199375312Y-93872419D01*
X199375312Y-93872419D02*
X199375312Y-92872419D01*
X199851503Y-93872419D02*
X199851503Y-92872419D01*
X199851503Y-92872419D02*
X200089598Y-92872419D01*
X200089598Y-92872419D02*
X200232455Y-92920038D01*
X200232455Y-92920038D02*
X200327693Y-93015276D01*
X200327693Y-93015276D02*
X200375312Y-93110514D01*
X200375312Y-93110514D02*
X200422931Y-93300990D01*
X200422931Y-93300990D02*
X200422931Y-93443847D01*
X200422931Y-93443847D02*
X200375312Y-93634323D01*
X200375312Y-93634323D02*
X200327693Y-93729561D01*
X200327693Y-93729561D02*
X200232455Y-93824800D01*
X200232455Y-93824800D02*
X200089598Y-93872419D01*
X200089598Y-93872419D02*
X199851503Y-93872419D01*
D11*
X141630327Y-99952219D02*
X141630327Y-98952219D01*
X141630327Y-98952219D02*
X141868422Y-98952219D01*
X141868422Y-98952219D02*
X142011279Y-98999838D01*
X142011279Y-98999838D02*
X142106517Y-99095076D01*
X142106517Y-99095076D02*
X142154136Y-99190314D01*
X142154136Y-99190314D02*
X142201755Y-99380790D01*
X142201755Y-99380790D02*
X142201755Y-99523647D01*
X142201755Y-99523647D02*
X142154136Y-99714123D01*
X142154136Y-99714123D02*
X142106517Y-99809361D01*
X142106517Y-99809361D02*
X142011279Y-99904600D01*
X142011279Y-99904600D02*
X141868422Y-99952219D01*
X141868422Y-99952219D02*
X141630327Y-99952219D01*
X142630327Y-99952219D02*
X142630327Y-98952219D01*
X143677945Y-99952219D02*
X143344612Y-99476028D01*
X143106517Y-99952219D02*
X143106517Y-98952219D01*
X143106517Y-98952219D02*
X143487469Y-98952219D01*
X143487469Y-98952219D02*
X143582707Y-98999838D01*
X143582707Y-98999838D02*
X143630326Y-99047457D01*
X143630326Y-99047457D02*
X143677945Y-99142695D01*
X143677945Y-99142695D02*
X143677945Y-99285552D01*
X143677945Y-99285552D02*
X143630326Y-99380790D01*
X143630326Y-99380790D02*
X143582707Y-99428409D01*
X143582707Y-99428409D02*
X143487469Y-99476028D01*
X143487469Y-99476028D02*
X143106517Y-99476028D01*
D10*
X212327693Y-121602038D02*
X212232455Y-121554419D01*
X212232455Y-121554419D02*
X212089598Y-121554419D01*
X212089598Y-121554419D02*
X211946741Y-121602038D01*
X211946741Y-121602038D02*
X211851503Y-121697276D01*
X211851503Y-121697276D02*
X211803884Y-121792514D01*
X211803884Y-121792514D02*
X211756265Y-121982990D01*
X211756265Y-121982990D02*
X211756265Y-122125847D01*
X211756265Y-122125847D02*
X211803884Y-122316323D01*
X211803884Y-122316323D02*
X211851503Y-122411561D01*
X211851503Y-122411561D02*
X211946741Y-122506800D01*
X211946741Y-122506800D02*
X212089598Y-122554419D01*
X212089598Y-122554419D02*
X212184836Y-122554419D01*
X212184836Y-122554419D02*
X212327693Y-122506800D01*
X212327693Y-122506800D02*
X212375312Y-122459180D01*
X212375312Y-122459180D02*
X212375312Y-122125847D01*
X212375312Y-122125847D02*
X212184836Y-122125847D01*
X212803884Y-122554419D02*
X212803884Y-121554419D01*
X212803884Y-121554419D02*
X213375312Y-122554419D01*
X213375312Y-122554419D02*
X213375312Y-121554419D01*
X213851503Y-122554419D02*
X213851503Y-121554419D01*
X213851503Y-121554419D02*
X214089598Y-121554419D01*
X214089598Y-121554419D02*
X214232455Y-121602038D01*
X214232455Y-121602038D02*
X214327693Y-121697276D01*
X214327693Y-121697276D02*
X214375312Y-121792514D01*
X214375312Y-121792514D02*
X214422931Y-121982990D01*
X214422931Y-121982990D02*
X214422931Y-122125847D01*
X214422931Y-122125847D02*
X214375312Y-122316323D01*
X214375312Y-122316323D02*
X214327693Y-122411561D01*
X214327693Y-122411561D02*
X214232455Y-122506800D01*
X214232455Y-122506800D02*
X214089598Y-122554419D01*
X214089598Y-122554419D02*
X213851503Y-122554419D01*
X124327693Y-92920038D02*
X124232455Y-92872419D01*
X124232455Y-92872419D02*
X124089598Y-92872419D01*
X124089598Y-92872419D02*
X123946741Y-92920038D01*
X123946741Y-92920038D02*
X123851503Y-93015276D01*
X123851503Y-93015276D02*
X123803884Y-93110514D01*
X123803884Y-93110514D02*
X123756265Y-93300990D01*
X123756265Y-93300990D02*
X123756265Y-93443847D01*
X123756265Y-93443847D02*
X123803884Y-93634323D01*
X123803884Y-93634323D02*
X123851503Y-93729561D01*
X123851503Y-93729561D02*
X123946741Y-93824800D01*
X123946741Y-93824800D02*
X124089598Y-93872419D01*
X124089598Y-93872419D02*
X124184836Y-93872419D01*
X124184836Y-93872419D02*
X124327693Y-93824800D01*
X124327693Y-93824800D02*
X124375312Y-93777180D01*
X124375312Y-93777180D02*
X124375312Y-93443847D01*
X124375312Y-93443847D02*
X124184836Y-93443847D01*
X124803884Y-93872419D02*
X124803884Y-92872419D01*
X124803884Y-92872419D02*
X125375312Y-93872419D01*
X125375312Y-93872419D02*
X125375312Y-92872419D01*
X125851503Y-93872419D02*
X125851503Y-92872419D01*
X125851503Y-92872419D02*
X126089598Y-92872419D01*
X126089598Y-92872419D02*
X126232455Y-92920038D01*
X126232455Y-92920038D02*
X126327693Y-93015276D01*
X126327693Y-93015276D02*
X126375312Y-93110514D01*
X126375312Y-93110514D02*
X126422931Y-93300990D01*
X126422931Y-93300990D02*
X126422931Y-93443847D01*
X126422931Y-93443847D02*
X126375312Y-93634323D01*
X126375312Y-93634323D02*
X126327693Y-93729561D01*
X126327693Y-93729561D02*
X126232455Y-93824800D01*
X126232455Y-93824800D02*
X126089598Y-93872419D01*
X126089598Y-93872419D02*
X125851503Y-93872419D01*
X124827693Y-134872419D02*
X124256265Y-134872419D01*
X124541979Y-134872419D02*
X124541979Y-133872419D01*
X124541979Y-133872419D02*
X124446741Y-134015276D01*
X124446741Y-134015276D02*
X124351503Y-134110514D01*
X124351503Y-134110514D02*
X124256265Y-134158133D01*
X125208646Y-134586704D02*
X125684836Y-134586704D01*
X125113408Y-134872419D02*
X125446741Y-133872419D01*
X125446741Y-133872419D02*
X125780074Y-134872419D01*
X118756265Y-133967657D02*
X118803884Y-133920038D01*
X118803884Y-133920038D02*
X118899122Y-133872419D01*
X118899122Y-133872419D02*
X119137217Y-133872419D01*
X119137217Y-133872419D02*
X119232455Y-133920038D01*
X119232455Y-133920038D02*
X119280074Y-133967657D01*
X119280074Y-133967657D02*
X119327693Y-134062895D01*
X119327693Y-134062895D02*
X119327693Y-134158133D01*
X119327693Y-134158133D02*
X119280074Y-134300990D01*
X119280074Y-134300990D02*
X118708646Y-134872419D01*
X118708646Y-134872419D02*
X119327693Y-134872419D01*
X120089598Y-134348609D02*
X120232455Y-134396228D01*
X120232455Y-134396228D02*
X120280074Y-134443847D01*
X120280074Y-134443847D02*
X120327693Y-134539085D01*
X120327693Y-134539085D02*
X120327693Y-134681942D01*
X120327693Y-134681942D02*
X120280074Y-134777180D01*
X120280074Y-134777180D02*
X120232455Y-134824800D01*
X120232455Y-134824800D02*
X120137217Y-134872419D01*
X120137217Y-134872419D02*
X119756265Y-134872419D01*
X119756265Y-134872419D02*
X119756265Y-133872419D01*
X119756265Y-133872419D02*
X120089598Y-133872419D01*
X120089598Y-133872419D02*
X120184836Y-133920038D01*
X120184836Y-133920038D02*
X120232455Y-133967657D01*
X120232455Y-133967657D02*
X120280074Y-134062895D01*
X120280074Y-134062895D02*
X120280074Y-134158133D01*
X120280074Y-134158133D02*
X120232455Y-134253371D01*
X120232455Y-134253371D02*
X120184836Y-134300990D01*
X120184836Y-134300990D02*
X120089598Y-134348609D01*
X120089598Y-134348609D02*
X119756265Y-134348609D01*
X158803884Y-111872419D02*
X158803884Y-110872419D01*
X158803884Y-110872419D02*
X159184836Y-110872419D01*
X159184836Y-110872419D02*
X159280074Y-110920038D01*
X159280074Y-110920038D02*
X159327693Y-110967657D01*
X159327693Y-110967657D02*
X159375312Y-111062895D01*
X159375312Y-111062895D02*
X159375312Y-111205752D01*
X159375312Y-111205752D02*
X159327693Y-111300990D01*
X159327693Y-111300990D02*
X159280074Y-111348609D01*
X159280074Y-111348609D02*
X159184836Y-111396228D01*
X159184836Y-111396228D02*
X158803884Y-111396228D01*
X159994360Y-110872419D02*
X160184836Y-110872419D01*
X160184836Y-110872419D02*
X160280074Y-110920038D01*
X160280074Y-110920038D02*
X160375312Y-111015276D01*
X160375312Y-111015276D02*
X160422931Y-111205752D01*
X160422931Y-111205752D02*
X160422931Y-111539085D01*
X160422931Y-111539085D02*
X160375312Y-111729561D01*
X160375312Y-111729561D02*
X160280074Y-111824800D01*
X160280074Y-111824800D02*
X160184836Y-111872419D01*
X160184836Y-111872419D02*
X159994360Y-111872419D01*
X159994360Y-111872419D02*
X159899122Y-111824800D01*
X159899122Y-111824800D02*
X159803884Y-111729561D01*
X159803884Y-111729561D02*
X159756265Y-111539085D01*
X159756265Y-111539085D02*
X159756265Y-111205752D01*
X159756265Y-111205752D02*
X159803884Y-111015276D01*
X159803884Y-111015276D02*
X159899122Y-110920038D01*
X159899122Y-110920038D02*
X159994360Y-110872419D01*
X160708646Y-110872419D02*
X161280074Y-110872419D01*
X160994360Y-111872419D02*
X160994360Y-110872419D01*
D11*
X142154135Y-107452219D02*
X141820802Y-106976028D01*
X141582707Y-107452219D02*
X141582707Y-106452219D01*
X141582707Y-106452219D02*
X141963659Y-106452219D01*
X141963659Y-106452219D02*
X142058897Y-106499838D01*
X142058897Y-106499838D02*
X142106516Y-106547457D01*
X142106516Y-106547457D02*
X142154135Y-106642695D01*
X142154135Y-106642695D02*
X142154135Y-106785552D01*
X142154135Y-106785552D02*
X142106516Y-106880790D01*
X142106516Y-106880790D02*
X142058897Y-106928409D01*
X142058897Y-106928409D02*
X141963659Y-106976028D01*
X141963659Y-106976028D02*
X141582707Y-106976028D01*
X142582707Y-106928409D02*
X142916040Y-106928409D01*
X143058897Y-107452219D02*
X142582707Y-107452219D01*
X142582707Y-107452219D02*
X142582707Y-106452219D01*
X142582707Y-106452219D02*
X143058897Y-106452219D01*
X143439850Y-107404600D02*
X143582707Y-107452219D01*
X143582707Y-107452219D02*
X143820802Y-107452219D01*
X143820802Y-107452219D02*
X143916040Y-107404600D01*
X143916040Y-107404600D02*
X143963659Y-107356980D01*
X143963659Y-107356980D02*
X144011278Y-107261742D01*
X144011278Y-107261742D02*
X144011278Y-107166504D01*
X144011278Y-107166504D02*
X143963659Y-107071266D01*
X143963659Y-107071266D02*
X143916040Y-107023647D01*
X143916040Y-107023647D02*
X143820802Y-106976028D01*
X143820802Y-106976028D02*
X143630326Y-106928409D01*
X143630326Y-106928409D02*
X143535088Y-106880790D01*
X143535088Y-106880790D02*
X143487469Y-106833171D01*
X143487469Y-106833171D02*
X143439850Y-106737933D01*
X143439850Y-106737933D02*
X143439850Y-106642695D01*
X143439850Y-106642695D02*
X143487469Y-106547457D01*
X143487469Y-106547457D02*
X143535088Y-106499838D01*
X143535088Y-106499838D02*
X143630326Y-106452219D01*
X143630326Y-106452219D02*
X143868421Y-106452219D01*
X143868421Y-106452219D02*
X144011278Y-106499838D01*
X144439850Y-106928409D02*
X144773183Y-106928409D01*
X144916040Y-107452219D02*
X144439850Y-107452219D01*
X144439850Y-107452219D02*
X144439850Y-106452219D01*
X144439850Y-106452219D02*
X144916040Y-106452219D01*
X145201755Y-106452219D02*
X145773183Y-106452219D01*
X145487469Y-107452219D02*
X145487469Y-106452219D01*
X141444612Y-106174600D02*
X145768422Y-106174600D01*
X141487469Y-104904600D02*
X141630326Y-104952219D01*
X141630326Y-104952219D02*
X141868421Y-104952219D01*
X141868421Y-104952219D02*
X141963659Y-104904600D01*
X141963659Y-104904600D02*
X142011278Y-104856980D01*
X142011278Y-104856980D02*
X142058897Y-104761742D01*
X142058897Y-104761742D02*
X142058897Y-104666504D01*
X142058897Y-104666504D02*
X142011278Y-104571266D01*
X142011278Y-104571266D02*
X141963659Y-104523647D01*
X141963659Y-104523647D02*
X141868421Y-104476028D01*
X141868421Y-104476028D02*
X141677945Y-104428409D01*
X141677945Y-104428409D02*
X141582707Y-104380790D01*
X141582707Y-104380790D02*
X141535088Y-104333171D01*
X141535088Y-104333171D02*
X141487469Y-104237933D01*
X141487469Y-104237933D02*
X141487469Y-104142695D01*
X141487469Y-104142695D02*
X141535088Y-104047457D01*
X141535088Y-104047457D02*
X141582707Y-103999838D01*
X141582707Y-103999838D02*
X141677945Y-103952219D01*
X141677945Y-103952219D02*
X141916040Y-103952219D01*
X141916040Y-103952219D02*
X142058897Y-103999838D01*
X142963659Y-104952219D02*
X142487469Y-104952219D01*
X142487469Y-104952219D02*
X142487469Y-103952219D01*
X143296993Y-104428409D02*
X143630326Y-104428409D01*
X143773183Y-104952219D02*
X143296993Y-104952219D01*
X143296993Y-104952219D02*
X143296993Y-103952219D01*
X143296993Y-103952219D02*
X143773183Y-103952219D01*
X144201755Y-104428409D02*
X144535088Y-104428409D01*
X144677945Y-104952219D02*
X144201755Y-104952219D01*
X144201755Y-104952219D02*
X144201755Y-103952219D01*
X144201755Y-103952219D02*
X144677945Y-103952219D01*
X145106517Y-104952219D02*
X145106517Y-103952219D01*
X145106517Y-103952219D02*
X145487469Y-103952219D01*
X145487469Y-103952219D02*
X145582707Y-103999838D01*
X145582707Y-103999838D02*
X145630326Y-104047457D01*
X145630326Y-104047457D02*
X145677945Y-104142695D01*
X145677945Y-104142695D02*
X145677945Y-104285552D01*
X145677945Y-104285552D02*
X145630326Y-104380790D01*
X145630326Y-104380790D02*
X145582707Y-104428409D01*
X145582707Y-104428409D02*
X145487469Y-104476028D01*
X145487469Y-104476028D02*
X145106517Y-104476028D01*
X141396993Y-103674600D02*
X145768422Y-103674600D01*
X141439850Y-102404600D02*
X141582707Y-102452219D01*
X141582707Y-102452219D02*
X141820802Y-102452219D01*
X141820802Y-102452219D02*
X141916040Y-102404600D01*
X141916040Y-102404600D02*
X141963659Y-102356980D01*
X141963659Y-102356980D02*
X142011278Y-102261742D01*
X142011278Y-102261742D02*
X142011278Y-102166504D01*
X142011278Y-102166504D02*
X141963659Y-102071266D01*
X141963659Y-102071266D02*
X141916040Y-102023647D01*
X141916040Y-102023647D02*
X141820802Y-101976028D01*
X141820802Y-101976028D02*
X141630326Y-101928409D01*
X141630326Y-101928409D02*
X141535088Y-101880790D01*
X141535088Y-101880790D02*
X141487469Y-101833171D01*
X141487469Y-101833171D02*
X141439850Y-101737933D01*
X141439850Y-101737933D02*
X141439850Y-101642695D01*
X141439850Y-101642695D02*
X141487469Y-101547457D01*
X141487469Y-101547457D02*
X141535088Y-101499838D01*
X141535088Y-101499838D02*
X141630326Y-101452219D01*
X141630326Y-101452219D02*
X141868421Y-101452219D01*
X141868421Y-101452219D02*
X142011278Y-101499838D01*
X142296993Y-101452219D02*
X142868421Y-101452219D01*
X142582707Y-102452219D02*
X142582707Y-101452219D01*
X143201755Y-101928409D02*
X143535088Y-101928409D01*
X143677945Y-102452219D02*
X143201755Y-102452219D01*
X143201755Y-102452219D02*
X143201755Y-101452219D01*
X143201755Y-101452219D02*
X143677945Y-101452219D01*
X144106517Y-102452219D02*
X144106517Y-101452219D01*
X144106517Y-101452219D02*
X144487469Y-101452219D01*
X144487469Y-101452219D02*
X144582707Y-101499838D01*
X144582707Y-101499838D02*
X144630326Y-101547457D01*
X144630326Y-101547457D02*
X144677945Y-101642695D01*
X144677945Y-101642695D02*
X144677945Y-101785552D01*
X144677945Y-101785552D02*
X144630326Y-101880790D01*
X144630326Y-101880790D02*
X144582707Y-101928409D01*
X144582707Y-101928409D02*
X144487469Y-101976028D01*
X144487469Y-101976028D02*
X144106517Y-101976028D01*
D12*
X203534819Y-131834523D02*
X204249104Y-131834523D01*
X204249104Y-131834523D02*
X204391961Y-131882142D01*
X204391961Y-131882142D02*
X204487200Y-131977380D01*
X204487200Y-131977380D02*
X204534819Y-132120237D01*
X204534819Y-132120237D02*
X204534819Y-132215475D01*
X204534819Y-130834523D02*
X204534819Y-131405951D01*
X204534819Y-131120237D02*
X203534819Y-131120237D01*
X203534819Y-131120237D02*
X203677676Y-131215475D01*
X203677676Y-131215475D02*
X203772914Y-131310713D01*
X203772914Y-131310713D02*
X203820533Y-131405951D01*
X203534819Y-130215475D02*
X203534819Y-130120237D01*
X203534819Y-130120237D02*
X203582438Y-130024999D01*
X203582438Y-130024999D02*
X203630057Y-129977380D01*
X203630057Y-129977380D02*
X203725295Y-129929761D01*
X203725295Y-129929761D02*
X203915771Y-129882142D01*
X203915771Y-129882142D02*
X204153866Y-129882142D01*
X204153866Y-129882142D02*
X204344342Y-129929761D01*
X204344342Y-129929761D02*
X204439580Y-129977380D01*
X204439580Y-129977380D02*
X204487200Y-130024999D01*
X204487200Y-130024999D02*
X204534819Y-130120237D01*
X204534819Y-130120237D02*
X204534819Y-130215475D01*
X204534819Y-130215475D02*
X204487200Y-130310713D01*
X204487200Y-130310713D02*
X204439580Y-130358332D01*
X204439580Y-130358332D02*
X204344342Y-130405951D01*
X204344342Y-130405951D02*
X204153866Y-130453570D01*
X204153866Y-130453570D02*
X203915771Y-130453570D01*
X203915771Y-130453570D02*
X203725295Y-130405951D01*
X203725295Y-130405951D02*
X203630057Y-130358332D01*
X203630057Y-130358332D02*
X203582438Y-130310713D01*
X203582438Y-130310713D02*
X203534819Y-130215475D01*
X107738095Y-137454819D02*
X107738095Y-136454819D01*
X107738095Y-136931009D02*
X108309523Y-136931009D01*
X108309523Y-137454819D02*
X108309523Y-136454819D01*
X108738095Y-136550057D02*
X108785714Y-136502438D01*
X108785714Y-136502438D02*
X108880952Y-136454819D01*
X108880952Y-136454819D02*
X109119047Y-136454819D01*
X109119047Y-136454819D02*
X109214285Y-136502438D01*
X109214285Y-136502438D02*
X109261904Y-136550057D01*
X109261904Y-136550057D02*
X109309523Y-136645295D01*
X109309523Y-136645295D02*
X109309523Y-136740533D01*
X109309523Y-136740533D02*
X109261904Y-136883390D01*
X109261904Y-136883390D02*
X108690476Y-137454819D01*
X108690476Y-137454819D02*
X109309523Y-137454819D01*
X114259580Y-124916666D02*
X114307200Y-124964285D01*
X114307200Y-124964285D02*
X114354819Y-125107142D01*
X114354819Y-125107142D02*
X114354819Y-125202380D01*
X114354819Y-125202380D02*
X114307200Y-125345237D01*
X114307200Y-125345237D02*
X114211961Y-125440475D01*
X114211961Y-125440475D02*
X114116723Y-125488094D01*
X114116723Y-125488094D02*
X113926247Y-125535713D01*
X113926247Y-125535713D02*
X113783390Y-125535713D01*
X113783390Y-125535713D02*
X113592914Y-125488094D01*
X113592914Y-125488094D02*
X113497676Y-125440475D01*
X113497676Y-125440475D02*
X113402438Y-125345237D01*
X113402438Y-125345237D02*
X113354819Y-125202380D01*
X113354819Y-125202380D02*
X113354819Y-125107142D01*
X113354819Y-125107142D02*
X113402438Y-124964285D01*
X113402438Y-124964285D02*
X113450057Y-124916666D01*
X114354819Y-123964285D02*
X114354819Y-124535713D01*
X114354819Y-124249999D02*
X113354819Y-124249999D01*
X113354819Y-124249999D02*
X113497676Y-124345237D01*
X113497676Y-124345237D02*
X113592914Y-124440475D01*
X113592914Y-124440475D02*
X113640533Y-124535713D01*
X212666666Y-96184819D02*
X212666666Y-96899104D01*
X212666666Y-96899104D02*
X212619047Y-97041961D01*
X212619047Y-97041961D02*
X212523809Y-97137200D01*
X212523809Y-97137200D02*
X212380952Y-97184819D01*
X212380952Y-97184819D02*
X212285714Y-97184819D01*
X213190476Y-97184819D02*
X213380952Y-97184819D01*
X213380952Y-97184819D02*
X213476190Y-97137200D01*
X213476190Y-97137200D02*
X213523809Y-97089580D01*
X213523809Y-97089580D02*
X213619047Y-96946723D01*
X213619047Y-96946723D02*
X213666666Y-96756247D01*
X213666666Y-96756247D02*
X213666666Y-96375295D01*
X213666666Y-96375295D02*
X213619047Y-96280057D01*
X213619047Y-96280057D02*
X213571428Y-96232438D01*
X213571428Y-96232438D02*
X213476190Y-96184819D01*
X213476190Y-96184819D02*
X213285714Y-96184819D01*
X213285714Y-96184819D02*
X213190476Y-96232438D01*
X213190476Y-96232438D02*
X213142857Y-96280057D01*
X213142857Y-96280057D02*
X213095238Y-96375295D01*
X213095238Y-96375295D02*
X213095238Y-96613390D01*
X213095238Y-96613390D02*
X213142857Y-96708628D01*
X213142857Y-96708628D02*
X213190476Y-96756247D01*
X213190476Y-96756247D02*
X213285714Y-96803866D01*
X213285714Y-96803866D02*
X213476190Y-96803866D01*
X213476190Y-96803866D02*
X213571428Y-96756247D01*
X213571428Y-96756247D02*
X213619047Y-96708628D01*
X213619047Y-96708628D02*
X213666666Y-96613390D01*
X206134819Y-128862333D02*
X206849104Y-128862333D01*
X206849104Y-128862333D02*
X206991961Y-128909952D01*
X206991961Y-128909952D02*
X207087200Y-129005190D01*
X207087200Y-129005190D02*
X207134819Y-129148047D01*
X207134819Y-129148047D02*
X207134819Y-129243285D01*
X207134819Y-127862333D02*
X207134819Y-128433761D01*
X207134819Y-128148047D02*
X206134819Y-128148047D01*
X206134819Y-128148047D02*
X206277676Y-128243285D01*
X206277676Y-128243285D02*
X206372914Y-128338523D01*
X206372914Y-128338523D02*
X206420533Y-128433761D01*
X175166666Y-96144819D02*
X175166666Y-96859104D01*
X175166666Y-96859104D02*
X175119047Y-97001961D01*
X175119047Y-97001961D02*
X175023809Y-97097200D01*
X175023809Y-97097200D02*
X174880952Y-97144819D01*
X174880952Y-97144819D02*
X174785714Y-97144819D01*
X175547619Y-96144819D02*
X176214285Y-96144819D01*
X176214285Y-96144819D02*
X175785714Y-97144819D01*
X151097080Y-124916666D02*
X151144700Y-124964285D01*
X151144700Y-124964285D02*
X151192319Y-125107142D01*
X151192319Y-125107142D02*
X151192319Y-125202380D01*
X151192319Y-125202380D02*
X151144700Y-125345237D01*
X151144700Y-125345237D02*
X151049461Y-125440475D01*
X151049461Y-125440475D02*
X150954223Y-125488094D01*
X150954223Y-125488094D02*
X150763747Y-125535713D01*
X150763747Y-125535713D02*
X150620890Y-125535713D01*
X150620890Y-125535713D02*
X150430414Y-125488094D01*
X150430414Y-125488094D02*
X150335176Y-125440475D01*
X150335176Y-125440475D02*
X150239938Y-125345237D01*
X150239938Y-125345237D02*
X150192319Y-125202380D01*
X150192319Y-125202380D02*
X150192319Y-125107142D01*
X150192319Y-125107142D02*
X150239938Y-124964285D01*
X150239938Y-124964285D02*
X150287557Y-124916666D01*
X150287557Y-124535713D02*
X150239938Y-124488094D01*
X150239938Y-124488094D02*
X150192319Y-124392856D01*
X150192319Y-124392856D02*
X150192319Y-124154761D01*
X150192319Y-124154761D02*
X150239938Y-124059523D01*
X150239938Y-124059523D02*
X150287557Y-124011904D01*
X150287557Y-124011904D02*
X150382795Y-123964285D01*
X150382795Y-123964285D02*
X150478033Y-123964285D01*
X150478033Y-123964285D02*
X150620890Y-124011904D01*
X150620890Y-124011904D02*
X151192319Y-124583332D01*
X151192319Y-124583332D02*
X151192319Y-123964285D01*
X126974819Y-96358333D02*
X127689104Y-96358333D01*
X127689104Y-96358333D02*
X127831961Y-96405952D01*
X127831961Y-96405952D02*
X127927200Y-96501190D01*
X127927200Y-96501190D02*
X127974819Y-96644047D01*
X127974819Y-96644047D02*
X127974819Y-96739285D01*
X127308152Y-95453571D02*
X127974819Y-95453571D01*
X126927200Y-95691666D02*
X127641485Y-95929761D01*
X127641485Y-95929761D02*
X127641485Y-95310714D01*
X196795714Y-106239104D02*
X197271904Y-106239104D01*
X196700476Y-106524819D02*
X197033809Y-105524819D01*
X197033809Y-105524819D02*
X197367142Y-106524819D01*
X197605238Y-105524819D02*
X198224285Y-105524819D01*
X198224285Y-105524819D02*
X197890952Y-105905771D01*
X197890952Y-105905771D02*
X198033809Y-105905771D01*
X198033809Y-105905771D02*
X198129047Y-105953390D01*
X198129047Y-105953390D02*
X198176666Y-106001009D01*
X198176666Y-106001009D02*
X198224285Y-106096247D01*
X198224285Y-106096247D02*
X198224285Y-106334342D01*
X198224285Y-106334342D02*
X198176666Y-106429580D01*
X198176666Y-106429580D02*
X198129047Y-106477200D01*
X198129047Y-106477200D02*
X198033809Y-106524819D01*
X198033809Y-106524819D02*
X197748095Y-106524819D01*
X197748095Y-106524819D02*
X197652857Y-106477200D01*
X197652857Y-106477200D02*
X197605238Y-106429580D01*
X188259580Y-124916666D02*
X188307200Y-124964285D01*
X188307200Y-124964285D02*
X188354819Y-125107142D01*
X188354819Y-125107142D02*
X188354819Y-125202380D01*
X188354819Y-125202380D02*
X188307200Y-125345237D01*
X188307200Y-125345237D02*
X188211961Y-125440475D01*
X188211961Y-125440475D02*
X188116723Y-125488094D01*
X188116723Y-125488094D02*
X187926247Y-125535713D01*
X187926247Y-125535713D02*
X187783390Y-125535713D01*
X187783390Y-125535713D02*
X187592914Y-125488094D01*
X187592914Y-125488094D02*
X187497676Y-125440475D01*
X187497676Y-125440475D02*
X187402438Y-125345237D01*
X187402438Y-125345237D02*
X187354819Y-125202380D01*
X187354819Y-125202380D02*
X187354819Y-125107142D01*
X187354819Y-125107142D02*
X187402438Y-124964285D01*
X187402438Y-124964285D02*
X187450057Y-124916666D01*
X187354819Y-124583332D02*
X187354819Y-123964285D01*
X187354819Y-123964285D02*
X187735771Y-124297618D01*
X187735771Y-124297618D02*
X187735771Y-124154761D01*
X187735771Y-124154761D02*
X187783390Y-124059523D01*
X187783390Y-124059523D02*
X187831009Y-124011904D01*
X187831009Y-124011904D02*
X187926247Y-123964285D01*
X187926247Y-123964285D02*
X188164342Y-123964285D01*
X188164342Y-123964285D02*
X188259580Y-124011904D01*
X188259580Y-124011904D02*
X188307200Y-124059523D01*
X188307200Y-124059523D02*
X188354819Y-124154761D01*
X188354819Y-124154761D02*
X188354819Y-124440475D01*
X188354819Y-124440475D02*
X188307200Y-124535713D01*
X188307200Y-124535713D02*
X188259580Y-124583332D01*
X107738095Y-90954819D02*
X107738095Y-89954819D01*
X107738095Y-90431009D02*
X108309523Y-90431009D01*
X108309523Y-90954819D02*
X108309523Y-89954819D01*
X109309523Y-90954819D02*
X108738095Y-90954819D01*
X109023809Y-90954819D02*
X109023809Y-89954819D01*
X109023809Y-89954819D02*
X108928571Y-90097676D01*
X108928571Y-90097676D02*
X108833333Y-90192914D01*
X108833333Y-90192914D02*
X108738095Y-90240533D01*
X122605714Y-106239104D02*
X123081904Y-106239104D01*
X122510476Y-106524819D02*
X122843809Y-105524819D01*
X122843809Y-105524819D02*
X123177142Y-106524819D01*
X124034285Y-106524819D02*
X123462857Y-106524819D01*
X123748571Y-106524819D02*
X123748571Y-105524819D01*
X123748571Y-105524819D02*
X123653333Y-105667676D01*
X123653333Y-105667676D02*
X123558095Y-105762914D01*
X123558095Y-105762914D02*
X123462857Y-105810533D01*
X138166666Y-96184819D02*
X138166666Y-96899104D01*
X138166666Y-96899104D02*
X138119047Y-97041961D01*
X138119047Y-97041961D02*
X138023809Y-97137200D01*
X138023809Y-97137200D02*
X137880952Y-97184819D01*
X137880952Y-97184819D02*
X137785714Y-97184819D01*
X138547619Y-96184819D02*
X139166666Y-96184819D01*
X139166666Y-96184819D02*
X138833333Y-96565771D01*
X138833333Y-96565771D02*
X138976190Y-96565771D01*
X138976190Y-96565771D02*
X139071428Y-96613390D01*
X139071428Y-96613390D02*
X139119047Y-96661009D01*
X139119047Y-96661009D02*
X139166666Y-96756247D01*
X139166666Y-96756247D02*
X139166666Y-96994342D01*
X139166666Y-96994342D02*
X139119047Y-97089580D01*
X139119047Y-97089580D02*
X139071428Y-97137200D01*
X139071428Y-97137200D02*
X138976190Y-97184819D01*
X138976190Y-97184819D02*
X138690476Y-97184819D01*
X138690476Y-97184819D02*
X138595238Y-97137200D01*
X138595238Y-97137200D02*
X138547619Y-97089580D01*
X166102319Y-131358333D02*
X166816604Y-131358333D01*
X166816604Y-131358333D02*
X166959461Y-131405952D01*
X166959461Y-131405952D02*
X167054700Y-131501190D01*
X167054700Y-131501190D02*
X167102319Y-131644047D01*
X167102319Y-131644047D02*
X167102319Y-131739285D01*
X166530890Y-130739285D02*
X166483271Y-130834523D01*
X166483271Y-130834523D02*
X166435652Y-130882142D01*
X166435652Y-130882142D02*
X166340414Y-130929761D01*
X166340414Y-130929761D02*
X166292795Y-130929761D01*
X166292795Y-130929761D02*
X166197557Y-130882142D01*
X166197557Y-130882142D02*
X166149938Y-130834523D01*
X166149938Y-130834523D02*
X166102319Y-130739285D01*
X166102319Y-130739285D02*
X166102319Y-130548809D01*
X166102319Y-130548809D02*
X166149938Y-130453571D01*
X166149938Y-130453571D02*
X166197557Y-130405952D01*
X166197557Y-130405952D02*
X166292795Y-130358333D01*
X166292795Y-130358333D02*
X166340414Y-130358333D01*
X166340414Y-130358333D02*
X166435652Y-130405952D01*
X166435652Y-130405952D02*
X166483271Y-130453571D01*
X166483271Y-130453571D02*
X166530890Y-130548809D01*
X166530890Y-130548809D02*
X166530890Y-130739285D01*
X166530890Y-130739285D02*
X166578509Y-130834523D01*
X166578509Y-130834523D02*
X166626128Y-130882142D01*
X166626128Y-130882142D02*
X166721366Y-130929761D01*
X166721366Y-130929761D02*
X166911842Y-130929761D01*
X166911842Y-130929761D02*
X167007080Y-130882142D01*
X167007080Y-130882142D02*
X167054700Y-130834523D01*
X167054700Y-130834523D02*
X167102319Y-130739285D01*
X167102319Y-130739285D02*
X167102319Y-130548809D01*
X167102319Y-130548809D02*
X167054700Y-130453571D01*
X167054700Y-130453571D02*
X167007080Y-130405952D01*
X167007080Y-130405952D02*
X166911842Y-130358333D01*
X166911842Y-130358333D02*
X166721366Y-130358333D01*
X166721366Y-130358333D02*
X166626128Y-130405952D01*
X166626128Y-130405952D02*
X166578509Y-130453571D01*
X166578509Y-130453571D02*
X166530890Y-130548809D01*
X200974819Y-96333333D02*
X201689104Y-96333333D01*
X201689104Y-96333333D02*
X201831961Y-96380952D01*
X201831961Y-96380952D02*
X201927200Y-96476190D01*
X201927200Y-96476190D02*
X201974819Y-96619047D01*
X201974819Y-96619047D02*
X201974819Y-96714285D01*
X200974819Y-95380952D02*
X200974819Y-95857142D01*
X200974819Y-95857142D02*
X201451009Y-95904761D01*
X201451009Y-95904761D02*
X201403390Y-95857142D01*
X201403390Y-95857142D02*
X201355771Y-95761904D01*
X201355771Y-95761904D02*
X201355771Y-95523809D01*
X201355771Y-95523809D02*
X201403390Y-95428571D01*
X201403390Y-95428571D02*
X201451009Y-95380952D01*
X201451009Y-95380952D02*
X201546247Y-95333333D01*
X201546247Y-95333333D02*
X201784342Y-95333333D01*
X201784342Y-95333333D02*
X201879580Y-95380952D01*
X201879580Y-95380952D02*
X201927200Y-95428571D01*
X201927200Y-95428571D02*
X201974819Y-95523809D01*
X201974819Y-95523809D02*
X201974819Y-95761904D01*
X201974819Y-95761904D02*
X201927200Y-95857142D01*
X201927200Y-95857142D02*
X201879580Y-95904761D01*
X159363214Y-106239104D02*
X159839404Y-106239104D01*
X159267976Y-106524819D02*
X159601309Y-105524819D01*
X159601309Y-105524819D02*
X159934642Y-106524819D01*
X160220357Y-105620057D02*
X160267976Y-105572438D01*
X160267976Y-105572438D02*
X160363214Y-105524819D01*
X160363214Y-105524819D02*
X160601309Y-105524819D01*
X160601309Y-105524819D02*
X160696547Y-105572438D01*
X160696547Y-105572438D02*
X160744166Y-105620057D01*
X160744166Y-105620057D02*
X160791785Y-105715295D01*
X160791785Y-105715295D02*
X160791785Y-105810533D01*
X160791785Y-105810533D02*
X160744166Y-105953390D01*
X160744166Y-105953390D02*
X160172738Y-106524819D01*
X160172738Y-106524819D02*
X160791785Y-106524819D01*
X163454819Y-96333333D02*
X164169104Y-96333333D01*
X164169104Y-96333333D02*
X164311961Y-96380952D01*
X164311961Y-96380952D02*
X164407200Y-96476190D01*
X164407200Y-96476190D02*
X164454819Y-96619047D01*
X164454819Y-96619047D02*
X164454819Y-96714285D01*
X163550057Y-95904761D02*
X163502438Y-95857142D01*
X163502438Y-95857142D02*
X163454819Y-95761904D01*
X163454819Y-95761904D02*
X163454819Y-95523809D01*
X163454819Y-95523809D02*
X163502438Y-95428571D01*
X163502438Y-95428571D02*
X163550057Y-95380952D01*
X163550057Y-95380952D02*
X163645295Y-95333333D01*
X163645295Y-95333333D02*
X163740533Y-95333333D01*
X163740533Y-95333333D02*
X163883390Y-95380952D01*
X163883390Y-95380952D02*
X164454819Y-95952380D01*
X164454819Y-95952380D02*
X164454819Y-95333333D01*
X129344819Y-131358333D02*
X130059104Y-131358333D01*
X130059104Y-131358333D02*
X130201961Y-131405952D01*
X130201961Y-131405952D02*
X130297200Y-131501190D01*
X130297200Y-131501190D02*
X130344819Y-131644047D01*
X130344819Y-131644047D02*
X130344819Y-131739285D01*
X129344819Y-130453571D02*
X129344819Y-130644047D01*
X129344819Y-130644047D02*
X129392438Y-130739285D01*
X129392438Y-130739285D02*
X129440057Y-130786904D01*
X129440057Y-130786904D02*
X129582914Y-130882142D01*
X129582914Y-130882142D02*
X129773390Y-130929761D01*
X129773390Y-130929761D02*
X130154342Y-130929761D01*
X130154342Y-130929761D02*
X130249580Y-130882142D01*
X130249580Y-130882142D02*
X130297200Y-130834523D01*
X130297200Y-130834523D02*
X130344819Y-130739285D01*
X130344819Y-130739285D02*
X130344819Y-130548809D01*
X130344819Y-130548809D02*
X130297200Y-130453571D01*
X130297200Y-130453571D02*
X130249580Y-130405952D01*
X130249580Y-130405952D02*
X130154342Y-130358333D01*
X130154342Y-130358333D02*
X129916247Y-130358333D01*
X129916247Y-130358333D02*
X129821009Y-130405952D01*
X129821009Y-130405952D02*
X129773390Y-130453571D01*
X129773390Y-130453571D02*
X129725771Y-130548809D01*
X129725771Y-130548809D02*
X129725771Y-130739285D01*
X129725771Y-130739285D02*
X129773390Y-130834523D01*
X129773390Y-130834523D02*
X129821009Y-130882142D01*
X129821009Y-130882142D02*
X129916247Y-130929761D01*
X215702095Y-90918819D02*
X215702095Y-89918819D01*
X215702095Y-90395009D02*
X216273523Y-90395009D01*
X216273523Y-90918819D02*
X216273523Y-89918819D01*
X216654476Y-89918819D02*
X217273523Y-89918819D01*
X217273523Y-89918819D02*
X216940190Y-90299771D01*
X216940190Y-90299771D02*
X217083047Y-90299771D01*
X217083047Y-90299771D02*
X217178285Y-90347390D01*
X217178285Y-90347390D02*
X217225904Y-90395009D01*
X217225904Y-90395009D02*
X217273523Y-90490247D01*
X217273523Y-90490247D02*
X217273523Y-90728342D01*
X217273523Y-90728342D02*
X217225904Y-90823580D01*
X217225904Y-90823580D02*
X217178285Y-90871200D01*
X217178285Y-90871200D02*
X217083047Y-90918819D01*
X217083047Y-90918819D02*
X216797333Y-90918819D01*
X216797333Y-90918819D02*
X216702095Y-90871200D01*
X216702095Y-90871200D02*
X216654476Y-90823580D01*
X215738095Y-137454819D02*
X215738095Y-136454819D01*
X215738095Y-136931009D02*
X216309523Y-136931009D01*
X216309523Y-137454819D02*
X216309523Y-136454819D01*
X217214285Y-136788152D02*
X217214285Y-137454819D01*
X216976190Y-136407200D02*
X216738095Y-137121485D01*
X216738095Y-137121485D02*
X217357142Y-137121485D01*
D13*
%TO.C,J10*%
X192360000Y-129695000D02*
X192360000Y-132355000D01*
X200040000Y-129695000D02*
X192360000Y-129695000D01*
X200040000Y-129695000D02*
X200040000Y-132355000D01*
X200040000Y-132355000D02*
X192360000Y-132355000D01*
X202640000Y-131025000D02*
X202640000Y-132355000D01*
X202640000Y-132355000D02*
X201310000Y-132355000D01*
%TO.C,C1*%
X108460000Y-124990000D02*
X106279000Y-124990000D01*
X108460000Y-125030000D02*
X106282000Y-125030000D01*
X108460000Y-125070000D02*
X106286000Y-125070000D01*
X108460000Y-125110000D02*
X106290000Y-125110000D01*
X108460000Y-125150000D02*
X106295000Y-125150000D01*
X108460000Y-125190000D02*
X106300000Y-125190000D01*
X108460000Y-125230000D02*
X106305000Y-125230000D01*
X108460000Y-125270000D02*
X106312000Y-125270000D01*
X108460000Y-125310000D02*
X106318000Y-125310000D01*
X108460000Y-125350000D02*
X106326000Y-125350000D01*
X108460000Y-125390000D02*
X106333000Y-125390000D01*
X108460000Y-125430000D02*
X106341000Y-125430000D01*
X108460000Y-125470000D02*
X106350000Y-125470000D01*
X108460000Y-125510000D02*
X106360000Y-125510000D01*
X108460000Y-125550000D02*
X106369000Y-125550000D01*
X108460000Y-125590000D02*
X106380000Y-125590000D01*
X108460000Y-125630000D02*
X106391000Y-125630000D01*
X108460000Y-125670000D02*
X106402000Y-125670000D01*
X108460000Y-125710000D02*
X106414000Y-125710000D01*
X108460000Y-125750000D02*
X106427000Y-125750000D01*
X108460000Y-125790000D02*
X106440000Y-125790000D01*
X108460000Y-125830000D02*
X106453000Y-125830000D01*
X108460000Y-125870000D02*
X106468000Y-125870000D01*
X108460000Y-125910000D02*
X106483000Y-125910000D01*
X108460000Y-125950000D02*
X106498000Y-125950000D01*
X108460000Y-125990000D02*
X106514000Y-125990000D01*
X108460000Y-126030000D02*
X106531000Y-126030000D01*
X108460000Y-126070000D02*
X106548000Y-126070000D01*
X108460000Y-126110000D02*
X106566000Y-126110000D01*
X108460000Y-126150000D02*
X106585000Y-126150000D01*
X108460000Y-126190000D02*
X106604000Y-126190000D01*
X108460000Y-126230000D02*
X106624000Y-126230000D01*
X108460000Y-126270000D02*
X106645000Y-126270000D01*
X108460000Y-126310000D02*
X106666000Y-126310000D01*
X108460000Y-126350000D02*
X106688000Y-126350000D01*
X108460000Y-126390000D02*
X106711000Y-126390000D01*
X108460000Y-126430000D02*
X106735000Y-126430000D01*
X108460000Y-126470000D02*
X106759000Y-126470000D01*
X108460000Y-126510000D02*
X106784000Y-126510000D01*
X108460000Y-126550000D02*
X106810000Y-126550000D01*
X108460000Y-126590000D02*
X106837000Y-126590000D01*
X108460000Y-126630000D02*
X106864000Y-126630000D01*
X108460000Y-126670000D02*
X106893000Y-126670000D01*
X108460000Y-126710000D02*
X106923000Y-126710000D01*
X108460000Y-126750000D02*
X106953000Y-126750000D01*
X108460000Y-126790000D02*
X106984000Y-126790000D01*
X108460000Y-126830000D02*
X107017000Y-126830000D01*
X108460000Y-126870000D02*
X107050000Y-126870000D01*
X108460000Y-126910000D02*
X107085000Y-126910000D01*
X108460000Y-126950000D02*
X107121000Y-126950000D01*
X108460000Y-126990000D02*
X107158000Y-126990000D01*
X108460000Y-127030000D02*
X107196000Y-127030000D01*
X109902000Y-127990000D02*
X109098000Y-127990000D01*
X110133000Y-127950000D02*
X108867000Y-127950000D01*
X110301000Y-127910000D02*
X108699000Y-127910000D01*
X110439000Y-127870000D02*
X108561000Y-127870000D01*
X110558000Y-127830000D02*
X108442000Y-127830000D01*
X110665000Y-127790000D02*
X108335000Y-127790000D01*
X110761000Y-127750000D02*
X108239000Y-127750000D01*
X110850000Y-127710000D02*
X108150000Y-127710000D01*
X110932000Y-127670000D02*
X108068000Y-127670000D01*
X111009000Y-127630000D02*
X107991000Y-127630000D01*
X111081000Y-127590000D02*
X107919000Y-127590000D01*
X111149000Y-127550000D02*
X107851000Y-127550000D01*
X111214000Y-127510000D02*
X107786000Y-127510000D01*
X111275000Y-127470000D02*
X107725000Y-127470000D01*
X111334000Y-127430000D02*
X107666000Y-127430000D01*
X111339000Y-121249759D02*
X111339000Y-121879759D01*
X111390000Y-127390000D02*
X107610000Y-127390000D01*
X111443000Y-127350000D02*
X107557000Y-127350000D01*
X111495000Y-127310000D02*
X107505000Y-127310000D01*
X111544000Y-127270000D02*
X107456000Y-127270000D01*
X111591000Y-127230000D02*
X107409000Y-127230000D01*
X111637000Y-127190000D02*
X107363000Y-127190000D01*
X111654000Y-121564759D02*
X111024000Y-121564759D01*
X111681000Y-127150000D02*
X107319000Y-127150000D01*
X111723000Y-127110000D02*
X107277000Y-127110000D01*
X111764000Y-127070000D02*
X107236000Y-127070000D01*
X111804000Y-127030000D02*
X110540000Y-127030000D01*
X111842000Y-126990000D02*
X110540000Y-126990000D01*
X111879000Y-126950000D02*
X110540000Y-126950000D01*
X111915000Y-126910000D02*
X110540000Y-126910000D01*
X111950000Y-126870000D02*
X110540000Y-126870000D01*
X111983000Y-126830000D02*
X110540000Y-126830000D01*
X112016000Y-126790000D02*
X110540000Y-126790000D01*
X112047000Y-126750000D02*
X110540000Y-126750000D01*
X112077000Y-126710000D02*
X110540000Y-126710000D01*
X112107000Y-126670000D02*
X110540000Y-126670000D01*
X112136000Y-126630000D02*
X110540000Y-126630000D01*
X112163000Y-126590000D02*
X110540000Y-126590000D01*
X112190000Y-126550000D02*
X110540000Y-126550000D01*
X112216000Y-126510000D02*
X110540000Y-126510000D01*
X112241000Y-126470000D02*
X110540000Y-126470000D01*
X112265000Y-126430000D02*
X110540000Y-126430000D01*
X112289000Y-126390000D02*
X110540000Y-126390000D01*
X112312000Y-126350000D02*
X110540000Y-126350000D01*
X112334000Y-126310000D02*
X110540000Y-126310000D01*
X112355000Y-126270000D02*
X110540000Y-126270000D01*
X112376000Y-126230000D02*
X110540000Y-126230000D01*
X112396000Y-126190000D02*
X110540000Y-126190000D01*
X112415000Y-126150000D02*
X110540000Y-126150000D01*
X112434000Y-126110000D02*
X110540000Y-126110000D01*
X112452000Y-126070000D02*
X110540000Y-126070000D01*
X112469000Y-126030000D02*
X110540000Y-126030000D01*
X112486000Y-125990000D02*
X110540000Y-125990000D01*
X112502000Y-125950000D02*
X110540000Y-125950000D01*
X112517000Y-125910000D02*
X110540000Y-125910000D01*
X112532000Y-125870000D02*
X110540000Y-125870000D01*
X112547000Y-125830000D02*
X110540000Y-125830000D01*
X112560000Y-125790000D02*
X110540000Y-125790000D01*
X112573000Y-125750000D02*
X110540000Y-125750000D01*
X112586000Y-125710000D02*
X110540000Y-125710000D01*
X112598000Y-125670000D02*
X110540000Y-125670000D01*
X112609000Y-125630000D02*
X110540000Y-125630000D01*
X112620000Y-125590000D02*
X110540000Y-125590000D01*
X112631000Y-125550000D02*
X110540000Y-125550000D01*
X112640000Y-125510000D02*
X110540000Y-125510000D01*
X112650000Y-125470000D02*
X110540000Y-125470000D01*
X112659000Y-125430000D02*
X110540000Y-125430000D01*
X112667000Y-125390000D02*
X110540000Y-125390000D01*
X112674000Y-125350000D02*
X110540000Y-125350000D01*
X112682000Y-125310000D02*
X110540000Y-125310000D01*
X112688000Y-125270000D02*
X110540000Y-125270000D01*
X112695000Y-125230000D02*
X110540000Y-125230000D01*
X112700000Y-125190000D02*
X110540000Y-125190000D01*
X112705000Y-125150000D02*
X110540000Y-125150000D01*
X112710000Y-125110000D02*
X110540000Y-125110000D01*
X112714000Y-125070000D02*
X110540000Y-125070000D01*
X112718000Y-125030000D02*
X110540000Y-125030000D01*
X112721000Y-124990000D02*
X110540000Y-124990000D01*
X112724000Y-124950000D02*
X106276000Y-124950000D01*
X112726000Y-124910000D02*
X106274000Y-124910000D01*
X112728000Y-124870000D02*
X106272000Y-124870000D01*
X112729000Y-124830000D02*
X106271000Y-124830000D01*
X112730000Y-124750000D02*
X106270000Y-124750000D01*
X112730000Y-124790000D02*
X106270000Y-124790000D01*
X112770000Y-124750000D02*
G75*
G02*
X106230000Y-124750000I-3270000J0D01*
G01*
X106230000Y-124750000D02*
G75*
G02*
X112770000Y-124750000I3270000J0D01*
G01*
%TO.C,J9*%
X211670000Y-100770000D02*
X211670000Y-118610000D01*
X211670000Y-100770000D02*
X214330000Y-100770000D01*
X211670000Y-118610000D02*
X214330000Y-118610000D01*
X213000000Y-98170000D02*
X214330000Y-98170000D01*
X214330000Y-98170000D02*
X214330000Y-99500000D01*
X214330000Y-100770000D02*
X214330000Y-118610000D01*
%TO.C,J1*%
X207680000Y-123329000D02*
X217720000Y-123329000D01*
X207680000Y-133729000D02*
X207680000Y-123329000D01*
X210700000Y-133729000D02*
X210700000Y-123329000D01*
X215600000Y-133729000D02*
X215600000Y-123329000D01*
X217100000Y-133729000D02*
X217100000Y-123329000D01*
X217720000Y-123329000D02*
X217720000Y-130769000D01*
X217720000Y-131369000D02*
X217720000Y-133729000D01*
X217720000Y-133729000D02*
X207680000Y-133729000D01*
X218330000Y-131509000D02*
X217720000Y-131069000D01*
X218330000Y-130629000D01*
X218330000Y-131509000D01*
G36*
X218330000Y-131509000D02*
G01*
X217720000Y-131069000D01*
X218330000Y-130629000D01*
X218330000Y-131509000D01*
G37*
%TO.C,J7*%
X174170000Y-100730000D02*
X174170000Y-118570000D01*
X174170000Y-100730000D02*
X176830000Y-100730000D01*
X174170000Y-118570000D02*
X176830000Y-118570000D01*
X175500000Y-98130000D02*
X176830000Y-98130000D01*
X176830000Y-98130000D02*
X176830000Y-99460000D01*
X176830000Y-100730000D02*
X176830000Y-118570000D01*
%TO.C,C2*%
X145297500Y-124990000D02*
X143116500Y-124990000D01*
X145297500Y-125030000D02*
X143119500Y-125030000D01*
X145297500Y-125070000D02*
X143123500Y-125070000D01*
X145297500Y-125110000D02*
X143127500Y-125110000D01*
X145297500Y-125150000D02*
X143132500Y-125150000D01*
X145297500Y-125190000D02*
X143137500Y-125190000D01*
X145297500Y-125230000D02*
X143142500Y-125230000D01*
X145297500Y-125270000D02*
X143149500Y-125270000D01*
X145297500Y-125310000D02*
X143155500Y-125310000D01*
X145297500Y-125350000D02*
X143163500Y-125350000D01*
X145297500Y-125390000D02*
X143170500Y-125390000D01*
X145297500Y-125430000D02*
X143178500Y-125430000D01*
X145297500Y-125470000D02*
X143187500Y-125470000D01*
X145297500Y-125510000D02*
X143197500Y-125510000D01*
X145297500Y-125550000D02*
X143206500Y-125550000D01*
X145297500Y-125590000D02*
X143217500Y-125590000D01*
X145297500Y-125630000D02*
X143228500Y-125630000D01*
X145297500Y-125670000D02*
X143239500Y-125670000D01*
X145297500Y-125710000D02*
X143251500Y-125710000D01*
X145297500Y-125750000D02*
X143264500Y-125750000D01*
X145297500Y-125790000D02*
X143277500Y-125790000D01*
X145297500Y-125830000D02*
X143290500Y-125830000D01*
X145297500Y-125870000D02*
X143305500Y-125870000D01*
X145297500Y-125910000D02*
X143320500Y-125910000D01*
X145297500Y-125950000D02*
X143335500Y-125950000D01*
X145297500Y-125990000D02*
X143351500Y-125990000D01*
X145297500Y-126030000D02*
X143368500Y-126030000D01*
X145297500Y-126070000D02*
X143385500Y-126070000D01*
X145297500Y-126110000D02*
X143403500Y-126110000D01*
X145297500Y-126150000D02*
X143422500Y-126150000D01*
X145297500Y-126190000D02*
X143441500Y-126190000D01*
X145297500Y-126230000D02*
X143461500Y-126230000D01*
X145297500Y-126270000D02*
X143482500Y-126270000D01*
X145297500Y-126310000D02*
X143503500Y-126310000D01*
X145297500Y-126350000D02*
X143525500Y-126350000D01*
X145297500Y-126390000D02*
X143548500Y-126390000D01*
X145297500Y-126430000D02*
X143572500Y-126430000D01*
X145297500Y-126470000D02*
X143596500Y-126470000D01*
X145297500Y-126510000D02*
X143621500Y-126510000D01*
X145297500Y-126550000D02*
X143647500Y-126550000D01*
X145297500Y-126590000D02*
X143674500Y-126590000D01*
X145297500Y-126630000D02*
X143701500Y-126630000D01*
X145297500Y-126670000D02*
X143730500Y-126670000D01*
X145297500Y-126710000D02*
X143760500Y-126710000D01*
X145297500Y-126750000D02*
X143790500Y-126750000D01*
X145297500Y-126790000D02*
X143821500Y-126790000D01*
X145297500Y-126830000D02*
X143854500Y-126830000D01*
X145297500Y-126870000D02*
X143887500Y-126870000D01*
X145297500Y-126910000D02*
X143922500Y-126910000D01*
X145297500Y-126950000D02*
X143958500Y-126950000D01*
X145297500Y-126990000D02*
X143995500Y-126990000D01*
X145297500Y-127030000D02*
X144033500Y-127030000D01*
X146739500Y-127990000D02*
X145935500Y-127990000D01*
X146970500Y-127950000D02*
X145704500Y-127950000D01*
X147138500Y-127910000D02*
X145536500Y-127910000D01*
X147276500Y-127870000D02*
X145398500Y-127870000D01*
X147395500Y-127830000D02*
X145279500Y-127830000D01*
X147502500Y-127790000D02*
X145172500Y-127790000D01*
X147598500Y-127750000D02*
X145076500Y-127750000D01*
X147687500Y-127710000D02*
X144987500Y-127710000D01*
X147769500Y-127670000D02*
X144905500Y-127670000D01*
X147846500Y-127630000D02*
X144828500Y-127630000D01*
X147918500Y-127590000D02*
X144756500Y-127590000D01*
X147986500Y-127550000D02*
X144688500Y-127550000D01*
X148051500Y-127510000D02*
X144623500Y-127510000D01*
X148112500Y-127470000D02*
X144562500Y-127470000D01*
X148171500Y-127430000D02*
X144503500Y-127430000D01*
X148176500Y-121249759D02*
X148176500Y-121879759D01*
X148227500Y-127390000D02*
X144447500Y-127390000D01*
X148280500Y-127350000D02*
X144394500Y-127350000D01*
X148332500Y-127310000D02*
X144342500Y-127310000D01*
X148381500Y-127270000D02*
X144293500Y-127270000D01*
X148428500Y-127230000D02*
X144246500Y-127230000D01*
X148474500Y-127190000D02*
X144200500Y-127190000D01*
X148491500Y-121564759D02*
X147861500Y-121564759D01*
X148518500Y-127150000D02*
X144156500Y-127150000D01*
X148560500Y-127110000D02*
X144114500Y-127110000D01*
X148601500Y-127070000D02*
X144073500Y-127070000D01*
X148641500Y-127030000D02*
X147377500Y-127030000D01*
X148679500Y-126990000D02*
X147377500Y-126990000D01*
X148716500Y-126950000D02*
X147377500Y-126950000D01*
X148752500Y-126910000D02*
X147377500Y-126910000D01*
X148787500Y-126870000D02*
X147377500Y-126870000D01*
X148820500Y-126830000D02*
X147377500Y-126830000D01*
X148853500Y-126790000D02*
X147377500Y-126790000D01*
X148884500Y-126750000D02*
X147377500Y-126750000D01*
X148914500Y-126710000D02*
X147377500Y-126710000D01*
X148944500Y-126670000D02*
X147377500Y-126670000D01*
X148973500Y-126630000D02*
X147377500Y-126630000D01*
X149000500Y-126590000D02*
X147377500Y-126590000D01*
X149027500Y-126550000D02*
X147377500Y-126550000D01*
X149053500Y-126510000D02*
X147377500Y-126510000D01*
X149078500Y-126470000D02*
X147377500Y-126470000D01*
X149102500Y-126430000D02*
X147377500Y-126430000D01*
X149126500Y-126390000D02*
X147377500Y-126390000D01*
X149149500Y-126350000D02*
X147377500Y-126350000D01*
X149171500Y-126310000D02*
X147377500Y-126310000D01*
X149192500Y-126270000D02*
X147377500Y-126270000D01*
X149213500Y-126230000D02*
X147377500Y-126230000D01*
X149233500Y-126190000D02*
X147377500Y-126190000D01*
X149252500Y-126150000D02*
X147377500Y-126150000D01*
X149271500Y-126110000D02*
X147377500Y-126110000D01*
X149289500Y-126070000D02*
X147377500Y-126070000D01*
X149306500Y-126030000D02*
X147377500Y-126030000D01*
X149323500Y-125990000D02*
X147377500Y-125990000D01*
X149339500Y-125950000D02*
X147377500Y-125950000D01*
X149354500Y-125910000D02*
X147377500Y-125910000D01*
X149369500Y-125870000D02*
X147377500Y-125870000D01*
X149384500Y-125830000D02*
X147377500Y-125830000D01*
X149397500Y-125790000D02*
X147377500Y-125790000D01*
X149410500Y-125750000D02*
X147377500Y-125750000D01*
X149423500Y-125710000D02*
X147377500Y-125710000D01*
X149435500Y-125670000D02*
X147377500Y-125670000D01*
X149446500Y-125630000D02*
X147377500Y-125630000D01*
X149457500Y-125590000D02*
X147377500Y-125590000D01*
X149468500Y-125550000D02*
X147377500Y-125550000D01*
X149477500Y-125510000D02*
X147377500Y-125510000D01*
X149487500Y-125470000D02*
X147377500Y-125470000D01*
X149496500Y-125430000D02*
X147377500Y-125430000D01*
X149504500Y-125390000D02*
X147377500Y-125390000D01*
X149511500Y-125350000D02*
X147377500Y-125350000D01*
X149519500Y-125310000D02*
X147377500Y-125310000D01*
X149525500Y-125270000D02*
X147377500Y-125270000D01*
X149532500Y-125230000D02*
X147377500Y-125230000D01*
X149537500Y-125190000D02*
X147377500Y-125190000D01*
X149542500Y-125150000D02*
X147377500Y-125150000D01*
X149547500Y-125110000D02*
X147377500Y-125110000D01*
X149551500Y-125070000D02*
X147377500Y-125070000D01*
X149555500Y-125030000D02*
X147377500Y-125030000D01*
X149558500Y-124990000D02*
X147377500Y-124990000D01*
X149561500Y-124950000D02*
X143113500Y-124950000D01*
X149563500Y-124910000D02*
X143111500Y-124910000D01*
X149565500Y-124870000D02*
X143109500Y-124870000D01*
X149566500Y-124830000D02*
X143108500Y-124830000D01*
X149567500Y-124750000D02*
X143107500Y-124750000D01*
X149567500Y-124790000D02*
X143107500Y-124790000D01*
X149607500Y-124750000D02*
G75*
G02*
X143067500Y-124750000I-3270000J0D01*
G01*
X143067500Y-124750000D02*
G75*
G02*
X149607500Y-124750000I3270000J0D01*
G01*
%TO.C,J4*%
X120880000Y-94695000D02*
X120880000Y-97355000D01*
X123480000Y-94695000D02*
X120880000Y-94695000D01*
X123480000Y-94695000D02*
X123480000Y-97355000D01*
X123480000Y-97355000D02*
X120880000Y-97355000D01*
X126080000Y-96025000D02*
X126080000Y-97355000D01*
X126080000Y-97355000D02*
X124750000Y-97355000D01*
%TO.C,A3*%
X189760000Y-107210000D02*
X189760000Y-108610000D01*
X189760000Y-109880000D02*
X189760000Y-127790000D01*
X189760000Y-127790000D02*
X205260000Y-127790000D01*
X191160000Y-107210000D02*
X189760000Y-107210000D01*
X192430000Y-107210000D02*
X192430000Y-109880000D01*
X192430000Y-109880000D02*
X189760000Y-109880000D01*
X192430000Y-109880000D02*
X192430000Y-127790000D01*
X202590000Y-107210000D02*
X202590000Y-127790000D01*
X205260000Y-107210000D02*
X192430000Y-107210000D01*
X205260000Y-127790000D02*
X205260000Y-107210000D01*
%TO.C,C3*%
X182460000Y-124990000D02*
X180279000Y-124990000D01*
X182460000Y-125030000D02*
X180282000Y-125030000D01*
X182460000Y-125070000D02*
X180286000Y-125070000D01*
X182460000Y-125110000D02*
X180290000Y-125110000D01*
X182460000Y-125150000D02*
X180295000Y-125150000D01*
X182460000Y-125190000D02*
X180300000Y-125190000D01*
X182460000Y-125230000D02*
X180305000Y-125230000D01*
X182460000Y-125270000D02*
X180312000Y-125270000D01*
X182460000Y-125310000D02*
X180318000Y-125310000D01*
X182460000Y-125350000D02*
X180326000Y-125350000D01*
X182460000Y-125390000D02*
X180333000Y-125390000D01*
X182460000Y-125430000D02*
X180341000Y-125430000D01*
X182460000Y-125470000D02*
X180350000Y-125470000D01*
X182460000Y-125510000D02*
X180360000Y-125510000D01*
X182460000Y-125550000D02*
X180369000Y-125550000D01*
X182460000Y-125590000D02*
X180380000Y-125590000D01*
X182460000Y-125630000D02*
X180391000Y-125630000D01*
X182460000Y-125670000D02*
X180402000Y-125670000D01*
X182460000Y-125710000D02*
X180414000Y-125710000D01*
X182460000Y-125750000D02*
X180427000Y-125750000D01*
X182460000Y-125790000D02*
X180440000Y-125790000D01*
X182460000Y-125830000D02*
X180453000Y-125830000D01*
X182460000Y-125870000D02*
X180468000Y-125870000D01*
X182460000Y-125910000D02*
X180483000Y-125910000D01*
X182460000Y-125950000D02*
X180498000Y-125950000D01*
X182460000Y-125990000D02*
X180514000Y-125990000D01*
X182460000Y-126030000D02*
X180531000Y-126030000D01*
X182460000Y-126070000D02*
X180548000Y-126070000D01*
X182460000Y-126110000D02*
X180566000Y-126110000D01*
X182460000Y-126150000D02*
X180585000Y-126150000D01*
X182460000Y-126190000D02*
X180604000Y-126190000D01*
X182460000Y-126230000D02*
X180624000Y-126230000D01*
X182460000Y-126270000D02*
X180645000Y-126270000D01*
X182460000Y-126310000D02*
X180666000Y-126310000D01*
X182460000Y-126350000D02*
X180688000Y-126350000D01*
X182460000Y-126390000D02*
X180711000Y-126390000D01*
X182460000Y-126430000D02*
X180735000Y-126430000D01*
X182460000Y-126470000D02*
X180759000Y-126470000D01*
X182460000Y-126510000D02*
X180784000Y-126510000D01*
X182460000Y-126550000D02*
X180810000Y-126550000D01*
X182460000Y-126590000D02*
X180837000Y-126590000D01*
X182460000Y-126630000D02*
X180864000Y-126630000D01*
X182460000Y-126670000D02*
X180893000Y-126670000D01*
X182460000Y-126710000D02*
X180923000Y-126710000D01*
X182460000Y-126750000D02*
X180953000Y-126750000D01*
X182460000Y-126790000D02*
X180984000Y-126790000D01*
X182460000Y-126830000D02*
X181017000Y-126830000D01*
X182460000Y-126870000D02*
X181050000Y-126870000D01*
X182460000Y-126910000D02*
X181085000Y-126910000D01*
X182460000Y-126950000D02*
X181121000Y-126950000D01*
X182460000Y-126990000D02*
X181158000Y-126990000D01*
X182460000Y-127030000D02*
X181196000Y-127030000D01*
X183902000Y-127990000D02*
X183098000Y-127990000D01*
X184133000Y-127950000D02*
X182867000Y-127950000D01*
X184301000Y-127910000D02*
X182699000Y-127910000D01*
X184439000Y-127870000D02*
X182561000Y-127870000D01*
X184558000Y-127830000D02*
X182442000Y-127830000D01*
X184665000Y-127790000D02*
X182335000Y-127790000D01*
X184761000Y-127750000D02*
X182239000Y-127750000D01*
X184850000Y-127710000D02*
X182150000Y-127710000D01*
X184932000Y-127670000D02*
X182068000Y-127670000D01*
X185009000Y-127630000D02*
X181991000Y-127630000D01*
X185081000Y-127590000D02*
X181919000Y-127590000D01*
X185149000Y-127550000D02*
X181851000Y-127550000D01*
X185214000Y-127510000D02*
X181786000Y-127510000D01*
X185275000Y-127470000D02*
X181725000Y-127470000D01*
X185334000Y-127430000D02*
X181666000Y-127430000D01*
X185339000Y-121249759D02*
X185339000Y-121879759D01*
X185390000Y-127390000D02*
X181610000Y-127390000D01*
X185443000Y-127350000D02*
X181557000Y-127350000D01*
X185495000Y-127310000D02*
X181505000Y-127310000D01*
X185544000Y-127270000D02*
X181456000Y-127270000D01*
X185591000Y-127230000D02*
X181409000Y-127230000D01*
X185637000Y-127190000D02*
X181363000Y-127190000D01*
X185654000Y-121564759D02*
X185024000Y-121564759D01*
X185681000Y-127150000D02*
X181319000Y-127150000D01*
X185723000Y-127110000D02*
X181277000Y-127110000D01*
X185764000Y-127070000D02*
X181236000Y-127070000D01*
X185804000Y-127030000D02*
X184540000Y-127030000D01*
X185842000Y-126990000D02*
X184540000Y-126990000D01*
X185879000Y-126950000D02*
X184540000Y-126950000D01*
X185915000Y-126910000D02*
X184540000Y-126910000D01*
X185950000Y-126870000D02*
X184540000Y-126870000D01*
X185983000Y-126830000D02*
X184540000Y-126830000D01*
X186016000Y-126790000D02*
X184540000Y-126790000D01*
X186047000Y-126750000D02*
X184540000Y-126750000D01*
X186077000Y-126710000D02*
X184540000Y-126710000D01*
X186107000Y-126670000D02*
X184540000Y-126670000D01*
X186136000Y-126630000D02*
X184540000Y-126630000D01*
X186163000Y-126590000D02*
X184540000Y-126590000D01*
X186190000Y-126550000D02*
X184540000Y-126550000D01*
X186216000Y-126510000D02*
X184540000Y-126510000D01*
X186241000Y-126470000D02*
X184540000Y-126470000D01*
X186265000Y-126430000D02*
X184540000Y-126430000D01*
X186289000Y-126390000D02*
X184540000Y-126390000D01*
X186312000Y-126350000D02*
X184540000Y-126350000D01*
X186334000Y-126310000D02*
X184540000Y-126310000D01*
X186355000Y-126270000D02*
X184540000Y-126270000D01*
X186376000Y-126230000D02*
X184540000Y-126230000D01*
X186396000Y-126190000D02*
X184540000Y-126190000D01*
X186415000Y-126150000D02*
X184540000Y-126150000D01*
X186434000Y-126110000D02*
X184540000Y-126110000D01*
X186452000Y-126070000D02*
X184540000Y-126070000D01*
X186469000Y-126030000D02*
X184540000Y-126030000D01*
X186486000Y-125990000D02*
X184540000Y-125990000D01*
X186502000Y-125950000D02*
X184540000Y-125950000D01*
X186517000Y-125910000D02*
X184540000Y-125910000D01*
X186532000Y-125870000D02*
X184540000Y-125870000D01*
X186547000Y-125830000D02*
X184540000Y-125830000D01*
X186560000Y-125790000D02*
X184540000Y-125790000D01*
X186573000Y-125750000D02*
X184540000Y-125750000D01*
X186586000Y-125710000D02*
X184540000Y-125710000D01*
X186598000Y-125670000D02*
X184540000Y-125670000D01*
X186609000Y-125630000D02*
X184540000Y-125630000D01*
X186620000Y-125590000D02*
X184540000Y-125590000D01*
X186631000Y-125550000D02*
X184540000Y-125550000D01*
X186640000Y-125510000D02*
X184540000Y-125510000D01*
X186650000Y-125470000D02*
X184540000Y-125470000D01*
X186659000Y-125430000D02*
X184540000Y-125430000D01*
X186667000Y-125390000D02*
X184540000Y-125390000D01*
X186674000Y-125350000D02*
X184540000Y-125350000D01*
X186682000Y-125310000D02*
X184540000Y-125310000D01*
X186688000Y-125270000D02*
X184540000Y-125270000D01*
X186695000Y-125230000D02*
X184540000Y-125230000D01*
X186700000Y-125190000D02*
X184540000Y-125190000D01*
X186705000Y-125150000D02*
X184540000Y-125150000D01*
X186710000Y-125110000D02*
X184540000Y-125110000D01*
X186714000Y-125070000D02*
X184540000Y-125070000D01*
X186718000Y-125030000D02*
X184540000Y-125030000D01*
X186721000Y-124990000D02*
X184540000Y-124990000D01*
X186724000Y-124950000D02*
X180276000Y-124950000D01*
X186726000Y-124910000D02*
X180274000Y-124910000D01*
X186728000Y-124870000D02*
X180272000Y-124870000D01*
X186729000Y-124830000D02*
X180271000Y-124830000D01*
X186730000Y-124750000D02*
X180270000Y-124750000D01*
X186730000Y-124790000D02*
X180270000Y-124790000D01*
X186770000Y-124750000D02*
G75*
G02*
X180230000Y-124750000I-3270000J0D01*
G01*
X180230000Y-124750000D02*
G75*
G02*
X186770000Y-124750000I3270000J0D01*
G01*
%TO.C,A1*%
X115570000Y-107210000D02*
X115570000Y-108610000D01*
X115570000Y-109880000D02*
X115570000Y-127790000D01*
X115570000Y-127790000D02*
X131070000Y-127790000D01*
X116970000Y-107210000D02*
X115570000Y-107210000D01*
X118240000Y-107210000D02*
X118240000Y-109880000D01*
X118240000Y-109880000D02*
X115570000Y-109880000D01*
X118240000Y-109880000D02*
X118240000Y-127790000D01*
X128400000Y-107210000D02*
X128400000Y-127790000D01*
X131070000Y-107210000D02*
X118240000Y-107210000D01*
X131070000Y-127790000D02*
X131070000Y-107210000D01*
%TO.C,J3*%
X137170000Y-100770000D02*
X137170000Y-118610000D01*
X137170000Y-100770000D02*
X139830000Y-100770000D01*
X137170000Y-118610000D02*
X139830000Y-118610000D01*
X138500000Y-98170000D02*
X139830000Y-98170000D01*
X139830000Y-98170000D02*
X139830000Y-99500000D01*
X139830000Y-100770000D02*
X139830000Y-118610000D01*
%TO.C,J8*%
X154927500Y-129695000D02*
X154927500Y-132355000D01*
X162607500Y-129695000D02*
X154927500Y-129695000D01*
X162607500Y-129695000D02*
X162607500Y-132355000D01*
X162607500Y-132355000D02*
X154927500Y-132355000D01*
X165207500Y-131025000D02*
X165207500Y-132355000D01*
X165207500Y-132355000D02*
X163877500Y-132355000D01*
%TO.C,J5*%
X194880000Y-94670000D02*
X194880000Y-97330000D01*
X197480000Y-94670000D02*
X194880000Y-94670000D01*
X197480000Y-94670000D02*
X197480000Y-97330000D01*
X197480000Y-97330000D02*
X194880000Y-97330000D01*
X200080000Y-96000000D02*
X200080000Y-97330000D01*
X200080000Y-97330000D02*
X198750000Y-97330000D01*
%TO.C,A2*%
X152327500Y-107210000D02*
X152327500Y-108610000D01*
X152327500Y-109880000D02*
X152327500Y-127790000D01*
X152327500Y-127790000D02*
X167827500Y-127790000D01*
X153727500Y-107210000D02*
X152327500Y-107210000D01*
X154997500Y-107210000D02*
X154997500Y-109880000D01*
X154997500Y-109880000D02*
X152327500Y-109880000D01*
X154997500Y-109880000D02*
X154997500Y-127790000D01*
X165157500Y-107210000D02*
X165157500Y-127790000D01*
X167827500Y-107210000D02*
X154997500Y-107210000D01*
X167827500Y-127790000D02*
X167827500Y-107210000D01*
%TO.C,J2*%
X157420000Y-94645000D02*
X158750000Y-94645000D01*
X157420000Y-95975000D02*
X157420000Y-94645000D01*
X160020000Y-94645000D02*
X162620000Y-94645000D01*
X160020000Y-97305000D02*
X160020000Y-94645000D01*
X160020000Y-97305000D02*
X162620000Y-97305000D01*
X162620000Y-97305000D02*
X162620000Y-94645000D01*
%TO.C,J6*%
X118170000Y-129695000D02*
X118170000Y-132355000D01*
X125850000Y-129695000D02*
X118170000Y-129695000D01*
X125850000Y-129695000D02*
X125850000Y-132355000D01*
X125850000Y-132355000D02*
X118170000Y-132355000D01*
X128450000Y-131025000D02*
X128450000Y-132355000D01*
X128450000Y-132355000D02*
X127120000Y-132355000D01*
%TD*%
M02*
