%TF.GenerationSoftware,KiCad,Pcbnew,9.0.7*%
%TF.CreationDate,2026-03-09T17:15:01-03:00*%
%TF.ProjectId,3DriversA4988,33447269-7665-4727-9341-343938382e6b,rev?*%
%TF.SameCoordinates,Original*%
%TF.FileFunction,Soldermask,Bot*%
%TF.FilePolarity,Negative*%
%FSLAX46Y46*%
G04 Gerber Fmt 4.6, Leading zero omitted, Abs format (unit mm)*
G04 Created by KiCad (PCBNEW 9.0.7) date 2026-03-09 17:15:01*
%MOMM*%
%LPD*%
G01*
G04 APERTURE LIST*
G04 Aperture macros list*
%AMRoundRect*
0 Rectangle with rounded corners*
0 $1 Rounding radius*
0 $2 $3 $4 $5 $6 $7 $8 $9 X,Y pos of 4 corners*
0 Add a 4 corners polygon primitive as box body*
4,1,4,$2,$3,$4,$5,$6,$7,$8,$9,$2,$3,0*
0 Add four circle primitives for the rounded corners*
1,1,$1+$1,$2,$3*
1,1,$1+$1,$4,$5*
1,1,$1+$1,$6,$7*
1,1,$1+$1,$8,$9*
0 Add four rect primitives between the rounded corners*
20,1,$1+$1,$2,$3,$4,$5,0*
20,1,$1+$1,$4,$5,$6,$7,0*
20,1,$1+$1,$6,$7,$8,$9,0*
20,1,$1+$1,$8,$9,$2,$3,0*%
G04 Aperture macros list end*
%ADD10R,1.700000X1.700000*%
%ADD11C,1.700000*%
%ADD12C,2.000000*%
%ADD13RoundRect,0.250000X-0.550000X0.550000X-0.550000X-0.550000X0.550000X-0.550000X0.550000X0.550000X0*%
%ADD14C,1.600000*%
%ADD15RoundRect,0.250000X1.050000X-1.050000X1.050000X1.050000X-1.050000X1.050000X-1.050000X-1.050000X0*%
%ADD16C,2.600000*%
%ADD17R,1.600000X1.600000*%
%ADD18O,1.600000X1.600000*%
G04 APERTURE END LIST*
D10*
%TO.C,J10*%
X201310000Y-131025000D03*
D11*
X198770000Y-131025000D03*
X196230000Y-131025000D03*
X193690000Y-131025000D03*
%TD*%
D12*
%TO.C,H2*%
X105000000Y-137000000D03*
%TD*%
D13*
%TO.C,C1*%
X109500000Y-123500000D03*
D14*
X109500000Y-126000000D03*
%TD*%
D10*
%TO.C,J9*%
X213000000Y-99500000D03*
D11*
X213000000Y-102040000D03*
X213000000Y-104580000D03*
X213000000Y-107120000D03*
X213000000Y-109660000D03*
X213000000Y-112200000D03*
X213000000Y-114740000D03*
X213000000Y-117280000D03*
%TD*%
D15*
%TO.C,J1*%
X213000000Y-131069000D03*
D16*
X213000000Y-125989000D03*
%TD*%
D10*
%TO.C,J7*%
X175500000Y-99460000D03*
D11*
X175500000Y-102000000D03*
X175500000Y-104540000D03*
X175500000Y-107080000D03*
X175500000Y-109620000D03*
X175500000Y-112160000D03*
X175500000Y-114700000D03*
X175500000Y-117240000D03*
%TD*%
D13*
%TO.C,C2*%
X146337500Y-123500000D03*
D14*
X146337500Y-126000000D03*
%TD*%
D10*
%TO.C,J4*%
X124750000Y-96025000D03*
D11*
X122210000Y-96025000D03*
%TD*%
D17*
%TO.C,A3*%
X191160000Y-108610000D03*
D18*
X191160000Y-111150000D03*
X191160000Y-113690000D03*
X191160000Y-116230000D03*
X191160000Y-118770000D03*
X191160000Y-121310000D03*
X191160000Y-123850000D03*
X191160000Y-126390000D03*
X203860000Y-126390000D03*
X203860000Y-123850000D03*
X203860000Y-121310000D03*
X203860000Y-118770000D03*
X203860000Y-116230000D03*
X203860000Y-113690000D03*
X203860000Y-111150000D03*
X203860000Y-108610000D03*
%TD*%
D13*
%TO.C,C3*%
X183500000Y-123500000D03*
D14*
X183500000Y-126000000D03*
%TD*%
D12*
%TO.C,H1*%
X105000000Y-90500000D03*
%TD*%
D17*
%TO.C,A1*%
X116970000Y-108610000D03*
D18*
X116970000Y-111150000D03*
X116970000Y-113690000D03*
X116970000Y-116230000D03*
X116970000Y-118770000D03*
X116970000Y-121310000D03*
X116970000Y-123850000D03*
X116970000Y-126390000D03*
X129670000Y-126390000D03*
X129670000Y-123850000D03*
X129670000Y-121310000D03*
X129670000Y-118770000D03*
X129670000Y-116230000D03*
X129670000Y-113690000D03*
X129670000Y-111150000D03*
X129670000Y-108610000D03*
%TD*%
D10*
%TO.C,J3*%
X138500000Y-99500000D03*
D11*
X138500000Y-102040000D03*
X138500000Y-104580000D03*
X138500000Y-107120000D03*
X138500000Y-109660000D03*
X138500000Y-112200000D03*
X138500000Y-114740000D03*
X138500000Y-117280000D03*
%TD*%
D10*
%TO.C,J8*%
X163877500Y-131025000D03*
D11*
X161337500Y-131025000D03*
X158797500Y-131025000D03*
X156257500Y-131025000D03*
%TD*%
D10*
%TO.C,J5*%
X198750000Y-96000000D03*
D11*
X196210000Y-96000000D03*
%TD*%
D17*
%TO.C,A2*%
X153727500Y-108610000D03*
D18*
X153727500Y-111150000D03*
X153727500Y-113690000D03*
X153727500Y-116230000D03*
X153727500Y-118770000D03*
X153727500Y-121310000D03*
X153727500Y-123850000D03*
X153727500Y-126390000D03*
X166427500Y-126390000D03*
X166427500Y-123850000D03*
X166427500Y-121310000D03*
X166427500Y-118770000D03*
X166427500Y-116230000D03*
X166427500Y-113690000D03*
X166427500Y-111150000D03*
X166427500Y-108610000D03*
%TD*%
D10*
%TO.C,J2*%
X158750000Y-95975000D03*
D11*
X161290000Y-95975000D03*
%TD*%
D10*
%TO.C,J6*%
X127120000Y-131025000D03*
D11*
X124580000Y-131025000D03*
X122040000Y-131025000D03*
X119500000Y-131025000D03*
%TD*%
D12*
%TO.C,H3*%
X219964000Y-90464000D03*
%TD*%
%TO.C,H4*%
X220000000Y-137000000D03*
%TD*%
M02*
