M48
; DRILL file {KiCad 9.0.7} date 2026-03-09T17:15:03-0300
; FORMAT={-:-/ absolute / metric / decimal}
; #@! TF.CreationDate,2026-03-09T17:15:03-03:00
; #@! TF.GenerationSoftware,Kicad,Pcbnew,9.0.7
; #@! TF.FileFunction,Plated,1,2,PTH
FMAT,2
METRIC
; #@! TA.AperFunction,Plated,PTH,ViaDrill
T1C0.800
; #@! TA.AperFunction,Plated,PTH,ComponentDrill
T2C0.800
; #@! TA.AperFunction,Plated,PTH,ComponentDrill
T3C1.000
; #@! TA.AperFunction,Plated,PTH,ComponentDrill
T4C1.300
%
G90
G05
T1
X113.0Y-98.5
X113.0Y-110.0
X150.0Y-98.5
X150.0Y-110.0
X187.0Y-98.5
X187.0Y-110.0
T2
X109.5Y-123.5
X109.5Y-126.0
X146.338Y-123.5
X146.338Y-126.0
X183.5Y-123.5
X183.5Y-126.0
T3
X116.97Y-108.61
X116.97Y-111.15
X116.97Y-113.69
X116.97Y-116.23
X116.97Y-118.77
X116.97Y-121.31
X116.97Y-123.85
X116.97Y-126.39
X119.5Y-131.025
X122.04Y-131.025
X122.21Y-96.025
X124.58Y-131.025
X124.75Y-96.025
X127.12Y-131.025
X129.67Y-108.61
X129.67Y-111.15
X129.67Y-113.69
X129.67Y-116.23
X129.67Y-118.77
X129.67Y-121.31
X129.67Y-123.85
X129.67Y-126.39
X138.5Y-99.5
X138.5Y-102.04
X138.5Y-104.58
X138.5Y-107.12
X138.5Y-109.66
X138.5Y-112.2
X138.5Y-114.74
X138.5Y-117.28
X153.727Y-108.61
X153.727Y-111.15
X153.727Y-113.69
X153.727Y-116.23
X153.727Y-118.77
X153.727Y-121.31
X153.727Y-123.85
X153.727Y-126.39
X156.257Y-131.025
X158.75Y-95.975
X158.797Y-131.025
X161.29Y-95.975
X161.338Y-131.025
X163.877Y-131.025
X166.427Y-108.61
X166.427Y-111.15
X166.427Y-113.69
X166.427Y-116.23
X166.427Y-118.77
X166.427Y-121.31
X166.427Y-123.85
X166.427Y-126.39
X175.5Y-99.46
X175.5Y-102.0
X175.5Y-104.54
X175.5Y-107.08
X175.5Y-109.62
X175.5Y-112.16
X175.5Y-114.7
X175.5Y-117.24
X191.16Y-108.61
X191.16Y-111.15
X191.16Y-113.69
X191.16Y-116.23
X191.16Y-118.77
X191.16Y-121.31
X191.16Y-123.85
X191.16Y-126.39
X193.69Y-131.025
X196.21Y-96.0
X196.23Y-131.025
X198.75Y-96.0
X198.77Y-131.025
X201.31Y-131.025
X203.86Y-108.61
X203.86Y-111.15
X203.86Y-113.69
X203.86Y-116.23
X203.86Y-118.77
X203.86Y-121.31
X203.86Y-123.85
X203.86Y-126.39
X213.0Y-99.5
X213.0Y-102.04
X213.0Y-104.58
X213.0Y-107.12
X213.0Y-109.66
X213.0Y-112.2
X213.0Y-114.74
X213.0Y-117.28
T4
X213.0Y-125.989
X213.0Y-131.069
M30
