M48
; DRILL file {KiCad 9.0.7} date 2026-03-19T17:10:04-0300
; FORMAT={-:-/ absolute / metric / decimal}
; #@! TF.CreationDate,2026-03-19T17:10:04-03:00
; #@! TF.GenerationSoftware,Kicad,Pcbnew,9.0.7
; #@! TF.FileFunction,Plated,1,2,PTH
FMAT,2
METRIC
; #@! TA.AperFunction,Plated,PTH,ViaDrill
T1C0.406
; #@! TA.AperFunction,Plated,PTH,ComponentDrill
T2C0.800
; #@! TA.AperFunction,Plated,PTH,ComponentDrill
T3C0.900
; #@! TA.AperFunction,Plated,PTH,ComponentDrill
T4C0.950
; #@! TA.AperFunction,Plated,PTH,ComponentDrill
T5C1.000
; #@! TA.AperFunction,Plated,PTH,ComponentDrill
T6C1.020
; #@! TA.AperFunction,Plated,PTH,ComponentDrill
T7C1.100
; #@! TA.AperFunction,Plated,PTH,ComponentDrill
T8C1.300
%
G90
G05
T1
X115.799Y-179.654
X131.852Y-183.769
X145.491Y-179.68
X162.078Y-183.744
X212.2Y-118.3
X212.4Y-148.5
X212.5Y-178.6
X215.5Y-101.2
X216.4Y-131.4
X216.5Y-161.1
T2
X111.963Y-177.638
X111.963Y-190.338
X114.503Y-177.638
X114.503Y-190.338
X117.043Y-177.638
X117.043Y-190.338
X117.8Y-155.82
X117.8Y-165.98
X119.583Y-177.638
X119.583Y-190.338
X122.123Y-177.638
X122.123Y-190.338
X124.663Y-177.638
X124.663Y-190.338
X126.962Y-208.182
X127.203Y-177.638
X127.203Y-190.338
X129.743Y-177.638
X129.743Y-190.338
X134.041Y-190.399
X137.122Y-208.182
X137.541Y-190.399
X141.856Y-177.663
X141.856Y-190.363
X144.396Y-177.663
X144.396Y-190.363
X146.936Y-177.663
X146.936Y-190.363
X149.476Y-177.663
X149.476Y-190.363
X152.016Y-177.663
X152.016Y-190.363
X154.556Y-177.663
X154.556Y-190.363
X157.096Y-177.663
X157.096Y-190.363
X157.116Y-208.182
X159.636Y-177.663
X159.636Y-190.363
X164.056Y-190.4
X167.276Y-208.182
X167.556Y-190.4
X171.956Y-177.663
X171.956Y-190.363
X174.496Y-177.663
X174.496Y-190.363
X177.036Y-177.663
X177.036Y-190.363
X179.576Y-177.663
X179.576Y-190.363
X182.116Y-177.663
X182.116Y-190.363
X184.656Y-177.663
X184.656Y-190.363
X186.962Y-208.182
X187.196Y-177.663
X187.196Y-190.363
X189.736Y-177.663
X189.736Y-190.363
X194.256Y-190.4
X197.122Y-208.182
X197.756Y-190.4
X210.0Y-133.477
X210.0Y-136.017
X210.0Y-138.557
X210.0Y-141.097
X210.0Y-143.637
X210.0Y-146.177
X210.0Y-148.717
X210.0Y-151.257
X210.084Y-103.454
X210.084Y-105.994
X210.084Y-108.534
X210.084Y-111.074
X210.084Y-113.614
X210.084Y-116.154
X210.084Y-118.694
X210.084Y-121.234
X210.1Y-163.42
X210.1Y-165.96
X210.1Y-168.5
X210.1Y-171.04
X210.1Y-173.58
X210.1Y-176.12
X210.1Y-178.66
X210.1Y-181.2
X222.682Y-125.659
X222.682Y-129.159
X222.7Y-133.477
X222.7Y-136.017
X222.7Y-138.557
X222.7Y-141.097
X222.7Y-143.637
X222.7Y-146.177
X222.7Y-148.717
X222.7Y-151.257
X222.733Y-95.738
X222.733Y-99.238
X222.784Y-103.454
X222.784Y-105.994
X222.784Y-108.534
X222.784Y-111.074
X222.784Y-113.614
X222.784Y-116.154
X222.784Y-118.694
X222.784Y-121.234
X222.8Y-155.6
X222.8Y-159.1
X222.8Y-163.42
X222.8Y-165.96
X222.8Y-168.5
X222.8Y-171.04
X222.8Y-173.58
X222.8Y-176.12
X222.8Y-178.66
X222.8Y-181.2
X230.22Y-184.8
X240.38Y-184.8
X241.427Y-155.804
X241.427Y-165.964
X241.478Y-125.857
X241.478Y-136.017
X241.554Y-95.834
X241.554Y-105.994
T3
X121.86Y-158.0
X124.4Y-158.0
X130.777Y-199.8
X133.317Y-199.8
X160.931Y-199.8
X163.471Y-199.8
X190.772Y-199.8
X193.312Y-199.8
X232.283Y-159.614
X232.283Y-162.154
X232.334Y-129.667
X232.334Y-132.207
X232.41Y-100.147
X232.41Y-102.687
X240.4Y-188.735
X240.4Y-191.275
T4
X117.056Y-199.8
X119.556Y-199.8
X120.32Y-68.918
X120.32Y-71.418
X120.32Y-73.918
X120.32Y-76.418
X120.32Y-78.918
X122.056Y-199.8
X124.556Y-199.8
X128.841Y-68.918
X128.841Y-71.418
X128.841Y-73.918
X128.841Y-76.418
X128.841Y-78.918
X137.361Y-68.918
X137.361Y-71.418
X137.361Y-73.918
X137.361Y-76.418
X137.361Y-78.918
X145.882Y-68.918
X145.882Y-71.418
X145.882Y-73.918
X145.882Y-76.418
X145.882Y-78.918
X146.956Y-199.8
X149.456Y-199.8
X151.956Y-199.8
X154.402Y-68.918
X154.402Y-71.418
X154.402Y-73.918
X154.402Y-76.418
X154.402Y-78.918
X154.456Y-199.8
X162.923Y-68.918
X162.923Y-71.418
X162.923Y-73.918
X162.923Y-76.418
X162.923Y-78.918
X171.443Y-68.918
X171.443Y-71.418
X171.443Y-73.918
X171.443Y-76.418
X171.443Y-78.918
X177.056Y-199.8
X179.556Y-199.8
X179.964Y-68.918
X179.964Y-71.418
X179.964Y-73.918
X179.964Y-76.418
X179.964Y-78.918
X182.056Y-199.8
X184.556Y-199.8
X188.484Y-68.918
X188.484Y-71.418
X188.484Y-73.918
X188.484Y-76.418
X188.484Y-78.918
X197.005Y-68.918
X197.005Y-71.418
X197.005Y-73.918
X197.005Y-76.418
X197.005Y-78.918
X205.525Y-68.918
X205.525Y-71.418
X205.525Y-73.918
X205.525Y-76.418
X205.525Y-78.918
X214.046Y-68.918
X214.046Y-71.418
X214.046Y-73.918
X214.046Y-76.418
X214.046Y-78.918
X232.283Y-168.624
X232.283Y-171.124
X232.283Y-173.624
X232.283Y-176.124
X232.334Y-138.677
X232.334Y-141.177
X232.334Y-143.677
X232.334Y-146.177
X232.41Y-108.654
X232.41Y-111.154
X232.41Y-113.654
X232.41Y-116.154
T5
X118.796Y-117.526
X121.336Y-117.526
X123.876Y-117.526
X126.416Y-117.526
X127.94Y-165.786
X128.956Y-117.526
X130.48Y-165.786
X131.496Y-117.526
X133.02Y-165.786
X134.036Y-117.526
X135.56Y-165.786
X136.576Y-117.526
X138.1Y-165.786
X139.116Y-117.526
X140.64Y-165.786
X141.656Y-117.526
X143.18Y-165.786
X145.72Y-117.526
X145.72Y-165.786
X148.26Y-117.526
X150.8Y-117.526
X150.8Y-165.786
X153.34Y-117.526
X153.34Y-165.786
X155.88Y-117.526
X155.88Y-165.786
X158.42Y-117.526
X158.42Y-165.786
X160.96Y-117.526
X160.96Y-165.786
X163.5Y-117.526
X163.5Y-165.786
X166.04Y-165.786
X168.58Y-117.526
X168.58Y-165.786
X171.12Y-117.526
X173.66Y-117.526
X173.66Y-165.786
X176.2Y-117.526
X176.2Y-165.786
X178.74Y-117.526
X178.74Y-165.786
X181.28Y-117.526
X181.28Y-165.786
X183.82Y-117.526
X183.82Y-165.786
X186.36Y-117.526
X186.36Y-165.786
X188.9Y-165.786
X191.44Y-165.786
X193.98Y-117.526
X193.98Y-120.066
X193.98Y-122.606
X193.98Y-125.146
X193.98Y-127.686
X193.98Y-130.226
X193.98Y-132.766
X193.98Y-135.306
X193.98Y-137.846
X193.98Y-140.386
X193.98Y-142.926
X193.98Y-145.466
X193.98Y-148.006
X193.98Y-150.546
X193.98Y-153.086
X193.98Y-155.626
X193.98Y-158.166
X193.98Y-160.706
X196.52Y-117.526
X196.52Y-120.066
X196.52Y-122.606
X196.52Y-125.146
X196.52Y-127.686
X196.52Y-130.226
X196.52Y-132.766
X196.52Y-135.306
X196.52Y-137.846
X196.52Y-140.386
X196.52Y-142.926
X196.52Y-145.466
X196.52Y-148.006
X196.52Y-150.546
X196.52Y-153.086
X196.52Y-155.626
X196.52Y-158.166
X196.52Y-160.706
T6
X135.154Y-93.294
X137.694Y-93.294
X140.234Y-93.294
X142.774Y-93.294
X145.314Y-93.294
X145.314Y-108.534
X147.854Y-93.294
X147.854Y-108.534
X150.394Y-93.294
X150.394Y-108.534
X152.934Y-93.294
X152.934Y-108.534
X155.474Y-93.294
X155.474Y-108.534
X158.014Y-93.294
X158.014Y-108.534
X160.554Y-93.294
X160.554Y-108.534
X163.094Y-93.294
X163.094Y-108.534
X165.634Y-93.294
X168.174Y-93.294
X170.714Y-93.294
X173.254Y-93.294
T7
X135.1Y-154.2
X135.1Y-160.7
X139.6Y-154.2
X139.6Y-160.7
T8
X205.1Y-205.5
X215.1Y-205.5
X222.309Y-205.486
X232.309Y-205.486
M30
